<svg xmlns="http://www.w3.org/2000/svg" width="800" height="600" viewBox="0 0 800 600">
  <rect width="800" height="600" fill="#9a2a2a" />
  <g transform="translate(100, 300)">
    <circle cx="100" cy="0" r="100" fill="white" />
    <g transform="translate(50, -30)" fill="#e63946">
      <path d="M50,0 C22.4,0 0,22.4 0,50 C0,77.6 22.4,100 50,100 C77.6,100 100,77.6 100,50 C100,22.4 77.6,0 50,0 Z M50,90 C28,90 10,72 10,50 C10,28 28,10 50,10 C72,10 90,28 90,50 C90,72 72,90 50,90 Z" />
      <path d="M30,30 C24.5,30 20,34.5 20,40 C20,45.5 24.5,50 30,50 C35.5,50 40,45.5 40,40 C40,34.5 35.5,30 30,30 Z" />
      <path d="M70,30 C64.5,30 60,34.5 60,40 C60,45.5 64.5,50 70,50 C75.5,50 80,45.5 80,40 C80,34.5 75.5,30 70,30 Z" />
      <path d="M50,60 C35,60 25,70 25,80 L75,80 C75,70 65,60 50,60 Z" />
      <path d="M50,20 C45,20 40,25 40,30 L60,30 C60,25 55,20 50,20 Z" />
    </g>
  </g>
  <g transform="translate(300, 300)">
    <path d="M0,0 L100,0 L100,50 L150,50 L150,0 L200,0 L200,50 L250,50 L250,-50 L300,-50 L300,50 L350,50 L350,0 L400,0" stroke="white" stroke-width="10" fill="none" />
    <text x="0" y="100" fill="white" font-family="Arial" font-size="48" font-weight="bold">BHATTA MITRA™</text>
    <text x="50" y="150" fill="white" font-family="Arial" font-size="24">FRIEND IN YOUR NEED</text>
  </g>
</svg>