<svg xmlns="http://www.w3.org/2000/svg" xmlns:xlink="http://www.w3.org/1999/xlink" width="500" zoomAndPan="magnify" viewBox="0 0 375 374.999991" height="500" preserveAspectRatio="xMidYMid meet" version="1.2"><defs><clipPath id="d4d13551b6"><path d="M 185 90.894531 L 323 90.894531 L 323 210.894531 L 185 210.894531 Z M 185 90.894531 "/></clipPath><clipPath id="7d411c4ded"><path d="M 143.757812 113 L 244 113 L 244 210.894531 L 143.757812 210.894531 Z M 143.757812 113 "/></clipPath><clipPath id="b9df956fb3"><path d="M 198.652344 90.894531 L 227.132812 90.894531 L 227.132812 119.375 L 198.652344 119.375 Z M 198.652344 90.894531 "/></clipPath><clipPath id="b025b00c53"><path d="M 212.890625 90.894531 C 205.027344 90.894531 198.652344 97.269531 198.652344 105.136719 C 198.652344 113 205.027344 119.375 212.890625 119.375 C 220.757812 119.375 227.132812 113 227.132812 105.136719 C 227.132812 97.269531 220.757812 90.894531 212.890625 90.894531 Z M 212.890625 90.894531 "/></clipPath><clipPath id="ef4003f00c"><path d="M 258.324219 71.585938 L 284.929688 71.585938 L 284.929688 98.191406 L 258.324219 98.191406 Z M 258.324219 71.585938 "/></clipPath><clipPath id="acf3f61b72"><path d="M 271.628906 71.585938 C 264.28125 71.585938 258.324219 77.542969 258.324219 84.886719 C 258.324219 92.234375 264.28125 98.191406 271.628906 98.191406 C 278.972656 98.191406 284.929688 92.234375 284.929688 84.886719 C 284.929688 77.542969 278.972656 71.585938 271.628906 71.585938 Z M 271.628906 71.585938 "/></clipPath></defs><g id="a64e0b5a29"><rect x="0" width="375" y="0" height="374.999991" style="fill:#ffffff;fill-opacity:1;stroke:none;"/><rect x="0" width="375" y="0" height="374.999991" style="fill:#ffffff;fill-opacity:1;stroke:none;"/><path style=" stroke:none;fill-rule:evenodd;fill:#2f1d0a;fill-opacity:1;" d="M 70.570312 161.667969 C 70.570312 160.222656 70.492188 158.75 70.492188 157.300781 C 70.570312 154.796875 70.648438 152.210938 70.828125 149.707031 C 70.597656 149.550781 69.539062 141.695312 71.628906 140.09375 C 70.492188 137.175781 69.203125 131.285156 70.90625 128.285156 C 70.828125 128.054688 70.75 127.71875 70.675781 127.484375 C 66.796875 127.40625 66.953125 125.394531 63.957031 117.617188 C 63.957031 116.632812 63.957031 115.675781 63.957031 114.695312 C 63.542969 113.972656 63.234375 106.195312 64.035156 104.515625 C 63.363281 102.914062 62.148438 92.476562 67.003906 92.398438 C 70.492188 92.320312 75.324219 91.519531 78.167969 93.199219 C 79.382812 92.628906 101.707031 91.492188 104.597656 92.628906 C 106.304688 91.261719 117.207031 91.648438 118.421875 92.0625 C 119.558594 90.925781 143.40625 91.082031 146.636719 94.566406 C 147.050781 94.492188 147.4375 94.492188 147.929688 94.492188 C 152.449219 95.292969 158.1875 99.011719 159.660156 102.734375 C 159.8125 102.734375 159.890625 102.734375 160.074219 102.734375 C 163.871094 103.457031 168.390625 117.355469 168.804688 118.417969 C 170.097656 121.800781 168.390625 119.628906 170.019531 123.765625 C 170.898438 125.933594 170.433594 129.578125 170.511719 133.222656 C 170.097656 133.945312 169.710938 134.746094 169.296875 135.496094 C 170.175781 137.847656 167.125 142.136719 165.34375 145.597656 C 164.542969 146.089844 163.714844 146.65625 162.914062 147.121094 C 162.914062 148.492188 161.699219 149.859375 160.175781 151.152344 C 164.957031 153.996094 166.171875 155.828125 168.109375 160.945312 C 169.554688 164.820312 175.136719 176.550781 171.75 179.472656 C 172.085938 180.683594 172.398438 185.851562 170.871094 187.789062 C 172.085938 190.941406 171.671875 190.867188 169.582031 194.820312 C 168.597656 196.601562 167.152344 199.496094 165.058594 200.246094 C 164.492188 204.273438 145.242188 211.5625 139.996094 210.035156 C 138.78125 210.914062 127.386719 211.484375 124.960938 210.113281 C 122.375 211.976562 103.28125 210.113281 98.449219 210.527344 C 94.804688 210.863281 88.992188 211.820312 85.351562 210.449219 C 83.980469 211.25 81.628906 210.683594 81.398438 210.683594 C 66.125 211.328125 68.789062 212.363281 63.851562 200.246094 C 63.050781 198.382812 63.699219 192.957031 64.085938 191.019531 C 64.085938 187.714844 64.085938 184.378906 64.085938 181.074219 C 62.457031 174.433594 66.023438 174.921875 70.621094 175 C 70.648438 170.582031 70.570312 166.113281 70.570312 161.667969 Z M 123.667969 129.011719 C 123.746094 128.285156 123.898438 127.71875 124.15625 127.304688 C 123.746094 126.324219 123.355469 125.367188 122.945312 124.308594 C 122.609375 124.386719 122.21875 124.386719 121.882812 124.460938 C 122.117188 127.847656 118.394531 127.382812 117.027344 127.304688 C 117.105469 129.320312 117.59375 134.488281 116.792969 135.960938 C 116.792969 136.039062 116.792969 136.117188 116.792969 136.191406 C 119.222656 135.960938 121.652344 135.78125 124.15625 135.546875 C 124.003906 133.375 123.847656 131.207031 123.667969 129.011719 Z M 117.285156 175.027344 C 119.300781 174.691406 121.316406 174.382812 123.355469 174.148438 C 125.527344 167.921875 124.570312 171.488281 124.417969 165.570312 C 121.988281 165.414062 119.636719 165.234375 117.234375 165 C 115.761719 170.246094 117.777344 165.957031 117.285156 175.027344 Z M 117.285156 175.027344 "/><path style=" stroke:none;fill-rule:nonzero;fill:#d77438;fill-opacity:1;" d="M 67.082031 177.609375 C 74.679688 177.609375 73.230469 179.136719 73.230469 170.894531 C 74.9375 171.382812 74.109375 175.183594 74.03125 179.472656 C 74.03125 180.839844 66.667969 180.117188 66.589844 180.039062 C 66.359375 179.78125 66.023438 177.609375 67.082031 177.609375 Z M 73.230469 169.03125 C 73.230469 165.878906 72.585938 160.867188 73.957031 160.867188 C 76.617188 161.023438 75.738281 162.003906 75.816406 168.722656 C 75.816406 170.246094 73.230469 170.09375 73.230469 169.03125 Z M 73.230469 148.414062 L 73.230469 142.34375 Z M 73.230469 137.253906 C 73.15625 127.070312 71.140625 129.578125 80.75 128.933594 C 82.535156 128.855469 84.136719 129.011719 84.238281 131.285156 C 84.394531 138.726562 85.6875 137.925781 74.058594 138 Z M 73.230469 126.582031 L 73.230469 116.480469 L 72.664062 116.480469 C 77.910156 115.988281 76.617188 116.402344 76.460938 123.015625 L 76.539062 123.015625 C 77.597656 128.777344 73.230469 127.640625 73.230469 126.582031 Z M 71.941406 116.480469 L 66.4375 116.480469 L 66.4375 115.832031 C 70.003906 115.601562 70.390625 116.324219 71.941406 116.480469 Z M 66.4375 113.402344 C 66.4375 102.242188 64.164062 105.550781 76.617188 105.652344 C 79.277344 105.730469 80.90625 104.128906 81.0625 107.28125 C 81.0625 109.140625 81.707031 114.230469 79.613281 114.152344 C 78.167969 114.074219 78.734375 113.816406 78.320312 112.136719 L 79.199219 112.550781 L 79.277344 112.394531 C 77.003906 110.769531 79.355469 110.949219 77.910156 110.226562 C 75.480469 108.933594 78.96875 114.179688 77.109375 114.179688 C 73.722656 114.023438 72.015625 113.300781 71.371094 113.945312 C 71.214844 114.128906 66.4375 114.695312 66.4375 113.402344 Z M 120.359375 94.179688 C 124.082031 94.335938 144.777344 94.335938 144.777344 96.6875 C 144.621094 100.820312 145.992188 104.28125 140.253906 102.914062 L 128.523438 103.40625 L 128.445312 102.992188 C 128.035156 103.144531 119.222656 103.972656 119.300781 102.113281 L 119.945312 94.363281 C 120.128906 94.257812 120.203125 94.179688 120.359375 94.179688 Z M 159.738281 105.496094 C 165.316406 115.753906 168.625 114.230469 137.75 113.429688 L 136.949219 112.214844 C 135.65625 99.269531 137.75 107.539062 153.511719 105.03125 L 157.464844 105.03125 L 157.464844 105.1875 Z M 156.738281 139.371094 C 152.785156 142.910156 147.207031 145.519531 142.191406 146.476562 C 142.191406 148.492188 139.453125 146.707031 138.964844 146.890625 C 136.121094 147.949219 132.660156 147.226562 132.582031 146.089844 C 132.503906 145.210938 132.8125 143.503906 132.660156 140.015625 C 132.582031 137.355469 132.996094 138.078125 142.453125 138.078125 C 144.699219 138.15625 159.089844 137.175781 156.738281 139.371094 Z M 149.296875 149.214844 C 154.464844 150.660156 160.769531 153.582031 163.84375 158.257812 C 161.492188 157.277344 160.847656 157.613281 157.386719 157.457031 L 158.109375 157.457031 L 158.109375 157.691406 L 152.21875 157.613281 L 152.21875 157.277344 L 151.882812 157.765625 C 149.945312 156.398438 149.296875 157.613281 148.808594 157.613281 C 146.535156 157.691406 140.410156 158.179688 140.230469 156.890625 C 139.351562 148.386719 139.503906 149.859375 149.039062 149.136719 C 149.144531 149.136719 149.222656 149.136719 149.296875 149.214844 Z M 165.238281 160.945312 C 166.042969 164.332031 167.902344 169.265625 166.378906 169.265625 C 162.992188 169.34375 159.738281 169.757812 159.738281 167.972656 C 159.503906 159.886719 158.523438 160.453125 164.59375 160.453125 C 164.902344 160.453125 165.164062 160.710938 165.238281 160.945312 Z M 165.394531 182.46875 C 163.765625 185.308594 161.261719 190.96875 160.304688 189.003906 C 159.8125 188.023438 159.503906 181.976562 160.796875 181.820312 C 162.242188 181.71875 166.378906 180.839844 165.394531 182.46875 Z M 135.085938 199.597656 C 131.703125 199.675781 122.789062 200.582031 122.710938 199.183594 C 122.710938 196.679688 122.066406 191.511719 123.203125 191.433594 C 136.871094 190.066406 135.5 193.527344 135.734375 198.875 Z M 93.59375 199.910156 C 90.929688 199.910156 82.6875 200.476562 82.585938 199.261719 C 81.707031 190.039062 81.785156 192.078125 86.539062 192.234375 C 95.503906 192.726562 94.289062 191.097656 94.289062 197.582031 C 94.339844 198.617188 94.574219 199.910156 93.59375 199.910156 Z M 66.4375 189.496094 C 66.4375 186.914062 65.867188 181.640625 67.082031 181.640625 C 71.605469 181.5625 77.910156 180.347656 77.597656 183.8125 C 76.875 190.996094 81.398438 190.839844 67.082031 190.195312 C 66.667969 190.140625 66.4375 189.882812 66.4375 189.496094 Z M 126.355469 132.160156 C 126.507812 127.070312 124.648438 128.441406 136.871094 127.484375 C 139.222656 127.332031 137.75 135.417969 137.75 135.417969 C 136.457031 136.632812 131.597656 137.046875 130.152344 135.496094 C 129.921875 135.261719 129.507812 135.261719 129.171875 135.496094 C 128.109375 136.476562 131.261719 134.925781 128.1875 136.476562 L 128.988281 134.773438 L 128.757812 134.617188 C 127.308594 137.253906 126.277344 134.175781 126.355469 132.160156 Z M 115.914062 116.480469 C 109.84375 116.480469 111.238281 114.617188 111.238281 126.089844 C 111.238281 126.425781 111.007812 126.734375 110.671875 126.734375 C 103.488281 127.460938 105.167969 129.011719 103.644531 117.847656 C 103.046875 114.308594 114.777344 115.339844 115.914062 116.480469 Z M 111.238281 129.347656 C 111.238281 131.929688 111.808594 136.710938 110.59375 136.710938 C 97.570312 136.863281 98.941406 138.726562 98.628906 129.757812 C 98.527344 128.621094 111.238281 127.71875 111.238281 129.347656 Z M 119.636719 177.609375 C 121.652344 177.121094 123.925781 176.242188 124.003906 177.457031 C 124.082031 178.980469 124.234375 178.902344 119.636719 178.980469 L 104.445312 179.546875 L 104.445312 179.472656 C 98.941406 179.703125 99.429688 180.117188 98.785156 174.457031 C 98.554688 172.597656 100.078125 171.382812 101.859375 171.71875 L 101.78125 171.488281 C 113.253906 171.152344 111.238281 169.625 111.238281 176.992188 C 111.238281 178.179688 119.300781 177.6875 119.636719 177.609375 Z M 111.238281 161.28125 C 111.238281 169.445312 111.886719 169.214844 109.714844 169.214844 L 108.914062 168.152344 L 108.757812 168.230469 L 108.679688 168.722656 C 104.882812 168.386719 104.960938 169.601562 104.652344 163.941406 C 104.316406 159.421875 104.988281 160.453125 110.644531 160.558594 C 110.902344 160.558594 111.238281 160.867188 111.238281 161.28125 Z M 92.480469 114.050781 C 90.050781 114.128906 82.871094 115.339844 82.6875 113.402344 C 81.707031 103.457031 81.628906 105.550781 86.5625 105.808594 C 95.53125 106.222656 94.316406 104.59375 94.316406 111.050781 C 94.417969 114.050781 94.574219 114.050781 92.480469 114.050781 Z M 106.949219 94.566406 C 120.773438 94.492188 117.542969 93.585938 117.386719 97.953125 C 117.054688 104.023438 119.25 103.121094 110.4375 103.121094 L 110.4375 103.277344 C 104.855469 103.351562 105.660156 104.152344 105.660156 98.988281 C 105.660156 97.253906 105.476562 94.566406 106.949219 94.566406 Z M 75.660156 178.824219 C 75.503906 169.523438 74.03125 171.304688 82.6875 171.074219 C 84.394531 170.996094 83.566406 174.71875 83.566406 178.929688 C 83.566406 180.195312 75.738281 181.332031 75.660156 178.824219 Z M 87.363281 149.964844 L 96.253906 149.964844 C 97.46875 149.964844 98.421875 154.5625 96.589844 155.777344 L 96.511719 155.933594 L 97.15625 155.933594 C 96.820312 157.378906 96.925781 157.636719 95.53125 157.226562 L 95.453125 157.457031 L 96.332031 158.027344 C 95.761719 157.949219 95.117188 158.671875 94.703125 157.792969 C 94.546875 157.378906 93.257812 158.773438 91.136719 157.792969 L 90.492188 157.714844 L 91.214844 158.363281 L 91.214844 158.59375 C 85.789062 157.871094 85.554688 161.4375 85.710938 151.644531 C 85.839844 150.609375 86.332031 149.964844 87.363281 149.964844 Z M 148.160156 188.589844 L 146.792969 187.222656 C 146.558594 179.546875 145.808594 181.074219 151.003906 181.226562 C 159.402344 181.5625 158.445312 179.9375 158.1875 188.667969 C 158.109375 190.375 157.308594 190.039062 152.605469 190.039062 C 151.082031 190.039062 149.609375 189.960938 148.574219 189.703125 L 148.574219 189.546875 L 149.453125 189.132812 L 149.53125 188.722656 Z M 106.949219 181.074219 C 120.773438 180.996094 117.542969 180.089844 117.386719 184.457031 C 117.054688 190.53125 119.25 189.625 110.4375 189.625 L 110.4375 189.78125 C 104.855469 189.859375 105.660156 190.660156 105.660156 185.492188 C 105.660156 183.761719 105.476562 181.074219 106.949219 181.074219 Z M 101.523438 141.695312 L 101.523438 144.28125 L 101.601562 144.28125 C 101.601562 151.308594 100.308594 146.863281 97.15625 148.078125 C 97.15625 148.078125 89.792969 149.859375 89.792969 146.863281 C 89.792969 144.511719 89.378906 139.421875 90.441406 139.265625 C 92.53125 138.929688 99.742188 138.777344 100.878906 139.835938 C 101.292969 140.25 101.523438 140.816406 101.523438 141.695312 Z M 101.523438 141.695312 "/><path style=" stroke:none;fill-rule:nonzero;fill:#af4c0f;fill-opacity:1;" d="M 80.261719 199.910156 C 78.554688 199.910156 78.554688 199.984375 78.320312 198.617188 L 79.199219 199.03125 L 79.277344 198.796875 C 77.003906 197.273438 79.277344 197.429688 77.910156 196.703125 C 75.738281 195.566406 78.554688 199.933594 76.847656 199.933594 C 74.007812 199.933594 66.410156 200.503906 66.410156 199.210938 C 66.410156 188.953125 64.242188 192.105469 76.589844 192.183594 C 80.3125 192.261719 81.191406 189.597656 81.113281 197.273438 C 81.164062 198.230469 81.164062 199.910156 80.261719 199.910156 Z M 119.300781 199.910156 L 95.867188 199.675781 C 95.710938 199.519531 95.453125 192.570312 96.589844 192.390625 C 108.140625 190.867188 106.691406 191.175781 119.378906 191.097656 C 120.773438 191.097656 122.554688 199.910156 119.300781 199.910156 Z M 121.082031 180.425781 C 124.726562 180.011719 127.542969 180.996094 130.953125 181.152344 C 147.4375 181.796875 144.699219 179.136719 144.542969 188.667969 C 144.542969 190.195312 140.023438 189.316406 140.023438 189.316406 L 128.550781 189.882812 L 128.472656 189.46875 C 128.058594 189.625 119.25 190.453125 119.328125 188.589844 C 119.558594 181.898438 118.835938 180.761719 121.082031 180.425781 Z M 139.53125 171.617188 C 142.117188 170.96875 153.355469 171.203125 153.433594 171.203125 C 167.488281 171.28125 166.195312 168.464844 165.628906 177.585938 L 164.257812 178.875 C 155.859375 178.875 148.34375 179.367188 139.839844 178.539062 C 138.886719 178.410156 138.550781 171.769531 139.53125 171.617188 Z M 127.386719 168.722656 C 127.308594 165.570312 126.585938 160.558594 127.957031 160.558594 L 140.152344 161.046875 C 146.378906 162.261719 145.320312 168.980469 141.03125 169.136719 L 127.621094 169.214844 C 127.464844 169.109375 127.386719 168.953125 127.386719 168.722656 Z M 87.699219 179.472656 C 86.898438 178.335938 88.761719 177.6875 88.992188 178.746094 C 89.40625 181.097656 94.496094 179.625 96.746094 178.902344 L 95.609375 178.179688 L 95.683594 178.023438 L 96.898438 177.378906 C 96.097656 171.71875 101.910156 170.917969 87.105469 171.074219 C 85.089844 171.152344 84.1875 175.519531 87.441406 179.730469 Z M 122.867188 154.796875 C 121.988281 154.460938 111.214844 153.167969 111.214844 154.875 L 111.214844 157.378906 L 110.878906 157.226562 C 108.785156 159.652344 104.726562 157.378906 103.125 156.65625 L 102.402344 158.179688 C 100.230469 158.257812 99.019531 158.515625 99.898438 152.367188 C 100.386719 148.570312 106.277344 149.707031 113.074219 149.859375 C 125.113281 150.273438 123.746094 149.136719 123.746094 154.074219 Z M 75.738281 148.257812 L 74.601562 146.96875 C 74.367188 138.570312 72.429688 138.390625 82.042969 139.035156 C 84.625 139.265625 88.839844 139.035156 88.761719 140.171875 C 88.269531 150.042969 92.636719 148.414062 76.230469 148.414062 C 76.046875 148.414062 75.894531 148.414062 75.738281 148.257812 Z M 118.578125 138.726562 C 120.023438 138.726562 130.050781 137.433594 129.894531 138.878906 C 129.816406 139.9375 130.125 140.972656 129.171875 140.894531 C 126.507812 140.738281 126.898438 142.34375 128.035156 142.910156 L 127.15625 143.324219 L 127.234375 143.480469 C 127.722656 143.402344 130.308594 142.988281 128.9375 141.851562 C 128.78125 141.695312 128.445312 141.617188 128.058594 141.617188 L 128.136719 141.386719 C 130.722656 141.386719 130.230469 140.816406 130.074219 146.476562 C 130.074219 146.8125 129.84375 147.121094 129.429688 147.121094 C 109.457031 147.535156 116.976562 148 116.019531 142.679688 L 115.941406 142.679688 L 116.019531 142.679688 C 115.683594 140.09375 114.933594 138.726562 118.578125 138.726562 Z M 126.433594 125.703125 C 126.355469 117.046875 122.710938 118.417969 123.125 116.890625 L 124.183594 116.402344 C 147.230469 116.738281 141.882812 114.230469 142.789062 122.472656 L 143.511719 123.042969 C 143.355469 124.566406 143.433594 126.195312 142.527344 126.195312 C 139.6875 126.269531 137.59375 126.605469 135.085938 125.394531 L 135.011719 125.625 L 135.734375 126.117188 L 135.65625 126.347656 C 132.890625 126.347656 126.507812 126.917969 126.433594 125.703125 Z M 98.707031 114.464844 C 94.574219 114.464844 95.789062 114.953125 95.789062 107.023438 C 95.789062 105.007812 96.433594 106.222656 100.644531 105.316406 C 107.183594 104.023438 112.195312 105.472656 119.480469 104.59375 C 121.496094 104.4375 120.851562 112.449219 120.851562 112.835938 C 120.851562 114.128906 99.355469 114.464844 98.707031 114.464844 Z M 66.4375 102.992188 C 66.4375 100.40625 65.867188 95.136719 67.082031 95.136719 C 71.605469 95.058594 77.910156 93.84375 77.597656 97.308594 C 76.875 104.515625 81.398438 104.359375 67.082031 103.714844 C 66.667969 103.636719 66.4375 103.378906 66.4375 102.992188 Z M 147.617188 97.074219 C 149.066406 97.644531 157.230469 101.285156 156.660156 102.808594 C 156.324219 103.6875 149.710938 103.222656 148.574219 103.222656 L 148.574219 103.070312 L 149.453125 102.65625 L 149.53125 102.242188 C 146.535156 102.085938 146.6875 101.828125 146.6875 97.71875 Z M 164.414062 116.632812 L 164.492188 125.03125 C 162.398438 124.617188 163.84375 126.324219 162.554688 126.324219 C 158.832031 126.324219 159.710938 127.691406 159.476562 116.632812 C 159.503906 115.445312 164.335938 115.601562 164.414062 116.632812 Z M 164.414062 116.632812 "/><path style=" stroke:none;fill-rule:nonzero;fill:#b35a24;fill-opacity:1;" d="M 73.230469 158.285156 C 73.230469 147.277344 73.078125 150.921875 75.503906 150.84375 C 84.238281 150.507812 84.730469 148.828125 83.59375 156.65625 C 83.59375 157.070312 84.238281 158.828125 83.023438 158.671875 C 75.246094 157.949219 73.230469 159.808594 73.230469 158.285156 Z M 79.304688 99.425781 C 78.246094 94.257812 77.597656 95.472656 92.402344 95.214844 C 107.027344 94.878906 104.367188 93.429688 104.210938 101.933594 C 104.210938 103.558594 102.6875 103.300781 101.136719 103.300781 C 98.21875 103.300781 81.421875 103.871094 80.027344 102.808594 L 79.382812 99.503906 C 79.382812 99.425781 79.382812 99.425781 79.304688 99.425781 Z M 123.589844 104.851562 C 127.957031 104.929688 135.320312 104.050781 135.476562 107.769531 C 135.707031 115.136719 138.136719 113.351562 126.585938 114.722656 L 126.585938 114.566406 C 121.910156 114.335938 122.789062 115.625 122.375 105.988281 Z M 78.734375 123.042969 C 78.96875 127.820312 76.566406 127.640625 89.25 127.484375 L 101.9375 126.761719 C 102.015625 126.605469 102.09375 126.53125 102.273438 126.425781 C 104.132812 125.546875 103.152344 124.980469 102.996094 123.273438 C 103.152344 125.859375 100.980469 125.703125 101.78125 123.351562 L 101.707031 123.351562 C 102.195312 114.539062 103.332031 116.066406 96.769531 116.167969 L 79.71875 116.324219 C 77.832031 116.402344 78.65625 120.921875 78.734375 123.042969 Z M 144.542969 117.953125 C 144.878906 119.964844 144.542969 122.886719 145.34375 124.023438 C 147.617188 127.097656 140.101562 126.375 156.25 126.605469 C 158.265625 126.605469 157.128906 124.515625 157.128906 121.515625 C 157.128906 119.425781 153.484375 122.808594 154.699219 118.289062 C 155.035156 117.226562 156.972656 118.519531 156.867188 117.148438 C 156.636719 114.875 154.027344 115.9375 151.699219 115.9375 C 146.792969 115.910156 143.976562 115.109375 144.542969 117.953125 Z M 163.457031 128.777344 L 159.660156 136.140625 C 157.800781 136.863281 151.726562 135.984375 150.28125 135.417969 L 150.617188 135.910156 C 148.523438 135.753906 147.230469 134.382812 146.894531 135.496094 L 145.757812 136.476562 C 145.914062 133.972656 141.238281 137.691406 141.160156 135.675781 C 141.082031 133.246094 140.4375 129.140625 141.574219 129.035156 C 143.925781 128.957031 162.914062 127.332031 163.40625 128.15625 C 163.535156 128.285156 163.535156 128.621094 163.457031 128.777344 Z M 94.988281 137.433594 C 93.851562 137.355469 91.421875 136.375 90.957031 137.097656 C 90.722656 137.589844 85.867188 138.3125 86.023438 136.039062 C 86.667969 128.441406 88.449219 128.105469 96.925781 129.320312 C 97.957031 129.5 98.527344 137.589844 94.988281 137.433594 Z M 102.660156 142.265625 C 100.566406 138.699219 112.117188 137.976562 113.746094 139.757812 C 113.746094 139.757812 114.726562 146.632812 113.253906 146.632812 L 112.996094 146.632812 L 113.332031 147.355469 C 108.242188 146.632812 102.171875 149.058594 102.582031 146.632812 C 102.917969 144.125 102.246094 144.847656 103.230469 142.679688 Z M 125.863281 156.914062 L 125.527344 153.839844 L 125.527344 153.917969 C 125.191406 150.429688 124.648438 149.472656 126.972656 149.394531 C 130.460938 149.242188 137.492188 148.414062 137.644531 150.765625 C 138.214844 160.789062 139.351562 157.226562 129.894531 158.050781 C 125.707031 158.4375 127.308594 156.269531 125.863281 156.914062 Z M 155.371094 169.265625 C 144.777344 169.1875 146.480469 170.96875 146.792969 161.410156 C 146.792969 159.707031 151.390625 160.609375 153.019531 160.609375 C 158.910156 160.53125 157.953125 158.179688 157.875 168.359375 C 157.875 169.265625 156.09375 169.265625 155.371094 169.265625 Z M 125.941406 174.769531 C 127.644531 169.910156 126.019531 170.96875 133.226562 170.816406 L 133.304688 170.582031 C 138.394531 172.105469 135.578125 170.816406 137.4375 178.257812 C 138.164062 180.996094 126.535156 179.703125 126.355469 178.335938 Z M 159.011719 191.589844 C 152.785156 196.523438 137.335938 200.96875 136.949219 198.875 L 136.949219 198.644531 C 135.65625 185.777344 137.75 194.042969 153.511719 191.539062 L 157.464844 191.539062 L 157.464844 191.613281 L 159.011719 191.613281 Z M 79.304688 185.929688 C 78.246094 180.761719 77.597656 181.976562 92.402344 181.71875 C 107.027344 181.382812 104.367188 179.9375 104.210938 188.4375 C 104.210938 190.066406 102.6875 189.804688 101.136719 189.804688 C 98.21875 189.804688 81.421875 190.375 80.027344 189.316406 L 79.382812 185.929688 C 79.382812 185.929688 79.382812 185.929688 79.304688 185.929688 Z M 77.445312 162.574219 C 78.503906 164.433594 75.09375 171.074219 81.242188 169.679688 C 88.269531 168.050781 82.042969 169.757812 85.917969 169.832031 C 88.578125 169.910156 87.933594 168.953125 88.839844 169.03125 L 100.800781 169.679688 C 103.796875 169.1875 102.816406 161.28125 101.292969 160.710938 C 100.308594 160.375 80.261719 160.710938 77.675781 161.695312 C 77.339844 161.746094 77.183594 162.082031 77.445312 162.574219 Z M 77.445312 162.574219 "/><g clip-rule="nonzero" clip-path="url(#d4d13551b6)"><path style=" stroke:none;fill-rule:nonzero;fill:#af4c0f;fill-opacity:1;" d="M 265.898438 124.871094 C 252.253906 151.652344 238.871094 177.921875 225.199219 204.753906 C 218.441406 191.519531 211.914062 178.746094 205.226562 165.652344 C 198.550781 171.90625 192.117188 177.929688 185.6875 183.953125 C 185.523438 183.816406 185.359375 183.683594 185.195312 183.550781 C 192.480469 172.011719 199.761719 160.46875 207.324219 148.492188 C 213.296875 157.835938 219.066406 166.855469 225.199219 176.449219 C 239.085938 147.792969 252.761719 119.574219 266.660156 90.894531 C 285.507812 130.789062 304.164062 170.277344 322.957031 210.070312 C 321.859375 210.164062 321.144531 210.28125 320.429688 210.28125 C 310.292969 210.292969 300.152344 210.246094 290.019531 210.324219 C 288.179688 210.339844 287.226562 209.671875 286.378906 208.019531 C 279.933594 195.496094 273.386719 183.027344 266.859375 170.542969 C 266.476562 169.808594 266.035156 169.113281 265.433594 168.085938 C 255.707031 181.308594 246.140625 194.3125 236.574219 207.3125 C 236.40625 207.207031 236.234375 207.101562 236.066406 206.996094 C 245.9375 186.714844 255.804688 166.4375 265.886719 145.726562 C 275.214844 159.808594 284.347656 173.589844 293.484375 187.375 C 293.65625 187.277344 293.832031 187.1875 294.003906 187.089844 C 284.707031 166.511719 275.410156 145.933594 265.898438 124.871094 Z M 265.898438 124.871094 "/></g><g clip-rule="nonzero" clip-path="url(#7d411c4ded)"><path style=" stroke:none;fill-rule:nonzero;fill:#af4c0f;fill-opacity:1;" d="M 143.8125 209.796875 C 164.972656 177.46875 185.792969 145.660156 206.917969 113.382812 C 213.089844 125.09375 219.097656 136.488281 225.347656 148.355469 C 231.574219 140.515625 237.542969 133 243.511719 125.484375 C 243.628906 125.558594 243.738281 125.636719 243.855469 125.707031 C 237.703125 139.035156 231.550781 152.359375 225.175781 166.175781 C 219.082031 157.125 213.195312 148.386719 207.082031 139.304688 C 206.3125 140.332031 205.6875 141.054688 205.1875 141.855469 C 191.707031 163.402344 178.195312 184.933594 164.820312 206.550781 C 163.273438 209.046875 161.703125 210.261719 158.699219 210.023438 C 154.820312 209.71875 150.898438 209.960938 146.996094 209.945312 C 146.113281 209.945312 145.230469 209.871094 143.8125 209.796875 Z M 143.8125 209.796875 "/></g><g style="fill:#c95b17;fill-opacity:1;"><g transform="translate(26.308393, 266.528276)"><path style="stroke:none" d="M 3.484375 -0.40625 C 5.710938 -0.195312 8.101562 -0.347656 10.65625 -0.859375 C 13.21875 -1.378906 15.664062 -2.222656 18 -3.390625 C 20.332031 -4.554688 22.25 -5.976562 23.75 -7.65625 C 25.007812 -9.09375 25.75 -10.488281 25.96875 -11.84375 C 26.1875 -13.195312 25.988281 -14.472656 25.375 -15.671875 C 24.769531 -16.867188 23.867188 -17.925781 22.671875 -18.84375 C 21.484375 -19.757812 20.109375 -20.460938 18.546875 -20.953125 C 19.335938 -22.128906 20.15625 -23.429688 21 -24.859375 C 21.851562 -26.285156 22.488281 -27.71875 22.90625 -29.15625 C 23.332031 -30.59375 23.332031 -31.96875 22.90625 -33.28125 C 22.476562 -34.59375 21.378906 -35.742188 19.609375 -36.734375 C 18.421875 -37.441406 16.96875 -37.90625 15.25 -38.125 C 13.539062 -38.351562 11.785156 -38.347656 9.984375 -38.109375 C 8.179688 -37.867188 6.5 -37.398438 4.9375 -36.703125 C 3.382812 -36.015625 2.144531 -35.09375 1.21875 -33.9375 C 1.019531 -33.851562 0.875 -33.195312 0.78125 -31.96875 C 0.6875 -30.75 0.640625 -29.140625 0.640625 -27.140625 C 0.640625 -25.148438 0.679688 -22.96875 0.765625 -20.59375 C 0.847656 -18.226562 0.960938 -15.867188 1.109375 -13.515625 C 1.265625 -11.171875 1.457031 -9.007812 1.6875 -7.03125 C 1.925781 -5.050781 2.195312 -3.453125 2.5 -2.234375 C 2.8125 -1.023438 3.140625 -0.414062 3.484375 -0.40625 Z M 9.828125 -20.75 L 10.28125 -27.84375 C 10.507812 -27.96875 10.898438 -28.164062 11.453125 -28.4375 C 12.015625 -28.71875 12.628906 -28.957031 13.296875 -29.15625 C 13.960938 -29.363281 14.570312 -29.472656 15.125 -29.484375 C 15.675781 -29.503906 16.078125 -29.328125 16.328125 -28.953125 C 16.566406 -28.578125 16.53125 -28.082031 16.21875 -27.46875 C 15.90625 -26.863281 15.4375 -26.207031 14.8125 -25.5 C 14.195312 -24.800781 13.53125 -24.117188 12.8125 -23.453125 C 12.101562 -22.785156 11.472656 -22.207031 10.921875 -21.71875 C 10.378906 -21.238281 10.015625 -20.914062 9.828125 -20.75 Z M 8.984375 -5.15625 C 8.929688 -6.1875 8.863281 -7.328125 8.78125 -8.578125 C 8.695312 -9.835938 8.765625 -11.019531 8.984375 -12.125 C 9.203125 -13.226562 9.679688 -13.988281 10.421875 -14.40625 C 10.753906 -14.625 11.25 -14.851562 11.90625 -15.09375 C 12.570312 -15.332031 13.273438 -15.507812 14.015625 -15.625 C 14.765625 -15.738281 15.421875 -15.703125 15.984375 -15.515625 C 16.546875 -15.328125 16.882812 -14.914062 17 -14.28125 C 17.15625 -13.4375 16.9375 -12.566406 16.34375 -11.671875 C 15.757812 -10.785156 14.992188 -9.925781 14.046875 -9.09375 C 13.109375 -8.269531 12.164062 -7.519531 11.21875 -6.84375 C 10.28125 -6.164062 9.535156 -5.601562 8.984375 -5.15625 Z M 8.984375 -5.15625 "/></g></g><g style="fill:#c95b17;fill-opacity:1;"><g transform="translate(52.944526, 265.217714)"><path style="stroke:none" d="M 7.046875 -0.453125 C 7.910156 -0.648438 8.515625 -1.101562 8.859375 -1.8125 C 9.203125 -2.519531 9.398438 -3.351562 9.453125 -4.3125 C 9.503906 -5.28125 9.488281 -6.226562 9.40625 -7.15625 C 9.320312 -8.082031 9.265625 -8.847656 9.234375 -9.453125 C 9.222656 -9.679688 9.613281 -9.894531 10.40625 -10.09375 C 11.207031 -10.289062 12.148438 -10.453125 13.234375 -10.578125 C 14.316406 -10.703125 15.304688 -10.796875 16.203125 -10.859375 C 17.097656 -10.929688 17.644531 -10.972656 17.84375 -10.984375 C 17.875 -10.453125 17.875 -9.710938 17.84375 -8.765625 C 17.8125 -7.828125 17.835938 -6.851562 17.921875 -5.84375 C 18.003906 -4.832031 18.207031 -3.929688 18.53125 -3.140625 C 18.863281 -2.359375 19.378906 -1.867188 20.078125 -1.671875 C 21.242188 -1.316406 22.414062 -1.367188 23.59375 -1.828125 C 24.78125 -2.285156 25.515625 -3.132812 25.796875 -4.375 C 26.367188 -6.882812 26.691406 -9.5 26.765625 -12.21875 C 26.835938 -14.945312 26.832031 -17.691406 26.75 -20.453125 C 26.675781 -23.222656 26.675781 -25.894531 26.75 -28.46875 C 26.75 -29.09375 26.769531 -29.898438 26.8125 -30.890625 C 26.863281 -31.890625 26.820312 -32.910156 26.6875 -33.953125 C 26.5625 -35.003906 26.289062 -35.910156 25.875 -36.671875 C 25.457031 -37.429688 24.800781 -37.890625 23.90625 -38.046875 C 23.257812 -38.160156 22.484375 -38.191406 21.578125 -38.140625 C 20.679688 -38.097656 19.828125 -37.941406 19.015625 -37.671875 C 18.203125 -37.410156 17.585938 -36.96875 17.171875 -36.34375 C 16.523438 -35.382812 16.148438 -34.140625 16.046875 -32.609375 C 15.953125 -31.078125 16.015625 -29.453125 16.234375 -27.734375 C 16.453125 -26.023438 16.703125 -24.378906 16.984375 -22.796875 C 17.273438 -21.222656 17.503906 -19.925781 17.671875 -18.90625 C 16.566406 -18.851562 15.753906 -18.8125 15.234375 -18.78125 C 14.722656 -18.757812 14.273438 -18.738281 13.890625 -18.71875 C 13.503906 -18.707031 13.023438 -18.6875 12.453125 -18.65625 C 11.878906 -18.625 10.988281 -18.5625 9.78125 -18.46875 C 9.695312 -20.71875 9.753906 -22.96875 9.953125 -25.21875 C 10.148438 -27.46875 10.347656 -29.707031 10.546875 -31.9375 C 10.679688 -33.164062 10.523438 -33.976562 10.078125 -34.375 C 9.640625 -34.769531 9.023438 -34.957031 8.234375 -34.9375 C 7.453125 -34.925781 6.609375 -34.835938 5.703125 -34.671875 C 4.484375 -34.492188 3.429688 -34.285156 2.546875 -34.046875 C 1.660156 -33.816406 1.023438 -33.359375 0.640625 -32.671875 C 0.253906 -31.992188 0.15625 -30.914062 0.34375 -29.4375 C 0.632812 -27.175781 0.914062 -24.921875 1.1875 -22.671875 C 1.457031 -20.429688 1.703125 -18.191406 1.921875 -15.953125 C 1.992188 -15.222656 2.003906 -14.164062 1.953125 -12.78125 C 1.910156 -11.40625 1.894531 -9.953125 1.90625 -8.421875 C 1.925781 -6.890625 2.082031 -5.453125 2.375 -4.109375 C 2.675781 -2.765625 3.1875 -1.738281 3.90625 -1.03125 C 4.632812 -0.320312 5.679688 -0.128906 7.046875 -0.453125 Z M 7.046875 -0.453125 "/></g></g><g style="fill:#c95b17;fill-opacity:1;"><g transform="translate(83.017592, 263.738046)"><path style="stroke:none" d="M 0.25 0.4375 C 0.738281 1.71875 1.265625 2.441406 1.828125 2.609375 C 2.390625 2.773438 2.960938 2.582031 3.546875 2.03125 C 4.140625 1.488281 4.691406 0.796875 5.203125 -0.046875 C 5.710938 -0.898438 6.144531 -1.726562 6.5 -2.53125 C 6.863281 -3.34375 7.113281 -3.921875 7.25 -4.265625 C 7.488281 -4.929688 8.085938 -5.441406 9.046875 -5.796875 C 10.003906 -6.148438 11.09375 -6.351562 12.3125 -6.40625 C 13.539062 -6.46875 14.695312 -6.421875 15.78125 -6.265625 C 16.863281 -6.109375 17.65625 -5.867188 18.15625 -5.546875 C 18.5625 -5.304688 19.003906 -4.878906 19.484375 -4.265625 C 19.972656 -3.660156 20.488281 -3.050781 21.03125 -2.4375 C 21.582031 -1.832031 22.117188 -1.390625 22.640625 -1.109375 C 23.171875 -0.835938 23.675781 -0.882812 24.15625 -1.25 C 24.644531 -1.613281 25.066406 -2.472656 25.421875 -3.828125 C 25.648438 -4.648438 25.675781 -5.914062 25.5 -7.625 C 25.320312 -9.34375 24.984375 -11.316406 24.484375 -13.546875 C 23.992188 -15.785156 23.390625 -18.0625 22.671875 -20.375 C 21.960938 -22.695312 21.1875 -24.890625 20.34375 -26.953125 C 19.5 -29.023438 18.628906 -30.765625 17.734375 -32.171875 C 16.847656 -33.578125 15.976562 -34.453125 15.125 -34.796875 C 14.257812 -35.097656 13.40625 -34.851562 12.5625 -34.0625 C 11.71875 -33.28125 10.890625 -32.148438 10.078125 -30.671875 C 9.273438 -29.191406 8.523438 -27.5625 7.828125 -25.78125 C 7.128906 -24.007812 6.488281 -22.257812 5.90625 -20.53125 C 5.320312 -18.8125 4.84375 -17.304688 4.46875 -16.015625 C 4.09375 -14.722656 3.816406 -13.867188 3.640625 -13.453125 C 3.335938 -12.585938 2.9375 -11.554688 2.4375 -10.359375 C 1.945312 -9.171875 1.46875 -7.914062 1 -6.59375 C 0.53125 -5.28125 0.195312 -4.003906 0 -2.765625 C -0.1875 -1.523438 -0.101562 -0.457031 0.25 0.4375 Z M 11.890625 -12.53125 C 10.867188 -12.4375 10.285156 -12.644531 10.140625 -13.15625 C 10.003906 -13.664062 10.128906 -14.3125 10.515625 -15.09375 C 10.898438 -15.882812 11.359375 -16.648438 11.890625 -17.390625 C 12.429688 -18.128906 12.863281 -18.65625 13.1875 -18.96875 C 13.3125 -18.863281 13.523438 -18.597656 13.828125 -18.171875 C 14.140625 -17.753906 14.425781 -17.253906 14.6875 -16.671875 C 14.945312 -16.085938 15.070312 -15.492188 15.0625 -14.890625 C 15.050781 -14.296875 14.816406 -13.785156 14.359375 -13.359375 C 13.898438 -12.941406 13.078125 -12.664062 11.890625 -12.53125 Z M 11.890625 -12.53125 "/></g></g><g style="fill:#c95b17;fill-opacity:1;"><g transform="translate(110.570238, 262.382389)"><path style="stroke:none" d="M 16.234375 -1.59375 C 17.085938 -2.175781 17.695312 -3.0625 18.0625 -4.25 C 18.425781 -5.4375 18.644531 -6.757812 18.71875 -8.21875 C 18.789062 -9.675781 18.800781 -11.082031 18.75 -12.4375 C 18.707031 -13.789062 18.703125 -14.890625 18.734375 -15.734375 C 18.785156 -17.117188 18.832031 -18.507812 18.875 -19.90625 C 18.925781 -21.300781 18.9375 -22.6875 18.90625 -24.0625 C 18.925781 -25.175781 18.976562 -25.914062 19.0625 -26.28125 C 19.144531 -26.65625 19.382812 -26.898438 19.78125 -27.015625 C 20.175781 -27.128906 20.828125 -27.328125 21.734375 -27.609375 C 22.523438 -27.828125 23.316406 -28.253906 24.109375 -28.890625 C 24.898438 -29.523438 25.582031 -30.257812 26.15625 -31.09375 C 26.726562 -31.925781 27.078125 -32.734375 27.203125 -33.515625 C 27.335938 -34.304688 27.148438 -34.992188 26.640625 -35.578125 C 26.128906 -36.171875 25.203125 -36.550781 23.859375 -36.71875 C 21.390625 -37.019531 18.863281 -37.109375 16.28125 -36.984375 C 13.707031 -36.859375 11.195312 -36.75 8.75 -36.65625 C 7.257812 -36.625 5.851562 -36.476562 4.53125 -36.21875 C 3.207031 -35.96875 2.148438 -35.421875 1.359375 -34.578125 C 0.578125 -33.734375 0.195312 -32.414062 0.21875 -30.625 C 0.21875 -29.050781 0.5 -27.835938 1.0625 -26.984375 C 1.625 -26.128906 2.285156 -25.53125 3.046875 -25.1875 C 3.804688 -24.84375 4.566406 -24.660156 5.328125 -24.640625 C 6.097656 -24.617188 6.71875 -24.664062 7.1875 -24.78125 C 7.664062 -24.90625 7.863281 -24.960938 7.78125 -24.953125 C 8.3125 -25.066406 8.679688 -24.800781 8.890625 -24.15625 C 9.097656 -23.507812 9.210938 -22.707031 9.234375 -21.75 C 9.265625 -20.789062 9.253906 -19.84375 9.203125 -18.90625 C 9.148438 -17.96875 9.140625 -17.269531 9.171875 -16.8125 C 9.191406 -15.363281 9.25 -13.898438 9.34375 -12.421875 C 9.4375 -10.953125 9.578125 -9.5 9.765625 -8.0625 C 9.835938 -7.226562 9.984375 -6.269531 10.203125 -5.1875 C 10.429688 -4.113281 10.78125 -3.15625 11.25 -2.3125 C 11.71875 -1.46875 12.347656 -0.929688 13.140625 -0.703125 C 13.941406 -0.472656 14.972656 -0.769531 16.234375 -1.59375 Z M 16.234375 -1.59375 "/></g></g><g style="fill:#c95b17;fill-opacity:1;"><g transform="translate(139.383106, 260.964725)"><path style="stroke:none" d="M 16.234375 -1.59375 C 17.085938 -2.175781 17.695312 -3.0625 18.0625 -4.25 C 18.425781 -5.4375 18.644531 -6.757812 18.71875 -8.21875 C 18.789062 -9.675781 18.800781 -11.082031 18.75 -12.4375 C 18.707031 -13.789062 18.703125 -14.890625 18.734375 -15.734375 C 18.785156 -17.117188 18.832031 -18.507812 18.875 -19.90625 C 18.925781 -21.300781 18.9375 -22.6875 18.90625 -24.0625 C 18.925781 -25.175781 18.976562 -25.914062 19.0625 -26.28125 C 19.144531 -26.65625 19.382812 -26.898438 19.78125 -27.015625 C 20.175781 -27.128906 20.828125 -27.328125 21.734375 -27.609375 C 22.523438 -27.828125 23.316406 -28.253906 24.109375 -28.890625 C 24.898438 -29.523438 25.582031 -30.257812 26.15625 -31.09375 C 26.726562 -31.925781 27.078125 -32.734375 27.203125 -33.515625 C 27.335938 -34.304688 27.148438 -34.992188 26.640625 -35.578125 C 26.128906 -36.171875 25.203125 -36.550781 23.859375 -36.71875 C 21.390625 -37.019531 18.863281 -37.109375 16.28125 -36.984375 C 13.707031 -36.859375 11.195312 -36.75 8.75 -36.65625 C 7.257812 -36.625 5.851562 -36.476562 4.53125 -36.21875 C 3.207031 -35.96875 2.148438 -35.421875 1.359375 -34.578125 C 0.578125 -33.734375 0.195312 -32.414062 0.21875 -30.625 C 0.21875 -29.050781 0.5 -27.835938 1.0625 -26.984375 C 1.625 -26.128906 2.285156 -25.53125 3.046875 -25.1875 C 3.804688 -24.84375 4.566406 -24.660156 5.328125 -24.640625 C 6.097656 -24.617188 6.71875 -24.664062 7.1875 -24.78125 C 7.664062 -24.90625 7.863281 -24.960938 7.78125 -24.953125 C 8.3125 -25.066406 8.679688 -24.800781 8.890625 -24.15625 C 9.097656 -23.507812 9.210938 -22.707031 9.234375 -21.75 C 9.265625 -20.789062 9.253906 -19.84375 9.203125 -18.90625 C 9.148438 -17.96875 9.140625 -17.269531 9.171875 -16.8125 C 9.191406 -15.363281 9.25 -13.898438 9.34375 -12.421875 C 9.4375 -10.953125 9.578125 -9.5 9.765625 -8.0625 C 9.835938 -7.226562 9.984375 -6.269531 10.203125 -5.1875 C 10.429688 -4.113281 10.78125 -3.15625 11.25 -2.3125 C 11.71875 -1.46875 12.347656 -0.929688 13.140625 -0.703125 C 13.941406 -0.472656 14.972656 -0.769531 16.234375 -1.59375 Z M 16.234375 -1.59375 "/></g></g><g style="fill:#c95b17;fill-opacity:1;"><g transform="translate(168.195973, 259.547062)"><path style="stroke:none" d="M 0.25 0.4375 C 0.738281 1.71875 1.265625 2.441406 1.828125 2.609375 C 2.390625 2.773438 2.960938 2.582031 3.546875 2.03125 C 4.140625 1.488281 4.691406 0.796875 5.203125 -0.046875 C 5.710938 -0.898438 6.144531 -1.726562 6.5 -2.53125 C 6.863281 -3.34375 7.113281 -3.921875 7.25 -4.265625 C 7.488281 -4.929688 8.085938 -5.441406 9.046875 -5.796875 C 10.003906 -6.148438 11.09375 -6.351562 12.3125 -6.40625 C 13.539062 -6.46875 14.695312 -6.421875 15.78125 -6.265625 C 16.863281 -6.109375 17.65625 -5.867188 18.15625 -5.546875 C 18.5625 -5.304688 19.003906 -4.878906 19.484375 -4.265625 C 19.972656 -3.660156 20.488281 -3.050781 21.03125 -2.4375 C 21.582031 -1.832031 22.117188 -1.390625 22.640625 -1.109375 C 23.171875 -0.835938 23.675781 -0.882812 24.15625 -1.25 C 24.644531 -1.613281 25.066406 -2.472656 25.421875 -3.828125 C 25.648438 -4.648438 25.675781 -5.914062 25.5 -7.625 C 25.320312 -9.34375 24.984375 -11.316406 24.484375 -13.546875 C 23.992188 -15.785156 23.390625 -18.0625 22.671875 -20.375 C 21.960938 -22.695312 21.1875 -24.890625 20.34375 -26.953125 C 19.5 -29.023438 18.628906 -30.765625 17.734375 -32.171875 C 16.847656 -33.578125 15.976562 -34.453125 15.125 -34.796875 C 14.257812 -35.097656 13.40625 -34.851562 12.5625 -34.0625 C 11.71875 -33.28125 10.890625 -32.148438 10.078125 -30.671875 C 9.273438 -29.191406 8.523438 -27.5625 7.828125 -25.78125 C 7.128906 -24.007812 6.488281 -22.257812 5.90625 -20.53125 C 5.320312 -18.8125 4.84375 -17.304688 4.46875 -16.015625 C 4.09375 -14.722656 3.816406 -13.867188 3.640625 -13.453125 C 3.335938 -12.585938 2.9375 -11.554688 2.4375 -10.359375 C 1.945312 -9.171875 1.46875 -7.914062 1 -6.59375 C 0.53125 -5.28125 0.195312 -4.003906 0 -2.765625 C -0.1875 -1.523438 -0.101562 -0.457031 0.25 0.4375 Z M 11.890625 -12.53125 C 10.867188 -12.4375 10.285156 -12.644531 10.140625 -13.15625 C 10.003906 -13.664062 10.128906 -14.3125 10.515625 -15.09375 C 10.898438 -15.882812 11.359375 -16.648438 11.890625 -17.390625 C 12.429688 -18.128906 12.863281 -18.65625 13.1875 -18.96875 C 13.3125 -18.863281 13.523438 -18.597656 13.828125 -18.171875 C 14.140625 -17.753906 14.425781 -17.253906 14.6875 -16.671875 C 14.945312 -16.085938 15.070312 -15.492188 15.0625 -14.890625 C 15.050781 -14.296875 14.816406 -13.785156 14.359375 -13.359375 C 13.898438 -12.941406 13.078125 -12.664062 11.890625 -12.53125 Z M 11.890625 -12.53125 "/></g></g><g style="fill:#c95b17;fill-opacity:1;"><g transform="translate(195.748619, 258.191405)"><path style="stroke:none" d=""/></g></g><g style="fill:#c95b17;fill-opacity:1;"><g transform="translate(213.506042, 257.317697)"><path style="stroke:none" d="M 9.046875 1.6875 C 9.742188 1.1875 10.253906 0.382812 10.578125 -0.71875 C 10.910156 -1.820312 11.117188 -3.097656 11.203125 -4.546875 C 11.285156 -5.992188 11.289062 -7.445312 11.21875 -8.90625 C 11.144531 -10.375 11.078125 -11.726562 11.015625 -12.96875 C 10.953125 -14.21875 10.925781 -15.1875 10.9375 -15.875 C 11.226562 -15.351562 11.617188 -14.566406 12.109375 -13.515625 C 12.597656 -12.460938 13.148438 -11.316406 13.765625 -10.078125 C 14.378906 -8.847656 15.035156 -7.65625 15.734375 -6.5 C 16.429688 -5.351562 17.140625 -4.394531 17.859375 -3.625 C 18.585938 -2.863281 19.296875 -2.421875 19.984375 -2.296875 C 20.515625 -2.210938 21.066406 -2.585938 21.640625 -3.421875 C 22.222656 -4.253906 22.785156 -5.34375 23.328125 -6.6875 C 23.867188 -8.03125 24.382812 -9.410156 24.875 -10.828125 C 25.363281 -12.253906 25.789062 -13.539062 26.15625 -14.6875 C 26.519531 -15.832031 26.828125 -16.628906 27.078125 -17.078125 C 27.265625 -16.347656 27.394531 -15.410156 27.46875 -14.265625 C 27.539062 -13.128906 27.632812 -11.898438 27.75 -10.578125 C 27.875 -9.265625 28.070312 -8.003906 28.34375 -6.796875 C 28.625 -5.585938 29.035156 -4.523438 29.578125 -3.609375 C 30.117188 -2.703125 30.835938 -2.078125 31.734375 -1.734375 C 32.660156 -1.390625 33.40625 -1.554688 33.96875 -2.234375 C 34.53125 -2.921875 34.953125 -3.929688 35.234375 -5.265625 C 35.515625 -6.597656 35.6875 -8.078125 35.75 -9.703125 C 35.820312 -11.335938 35.835938 -12.957031 35.796875 -14.5625 C 35.753906 -16.175781 35.703125 -17.601562 35.640625 -18.84375 C 35.578125 -20.082031 35.535156 -20.925781 35.515625 -21.375 C 35.535156 -22.644531 35.566406 -24.066406 35.609375 -25.640625 C 35.648438 -27.210938 35.601562 -28.753906 35.46875 -30.265625 C 35.332031 -31.773438 34.984375 -33.085938 34.421875 -34.203125 C 33.867188 -35.316406 33.003906 -36.054688 31.828125 -36.421875 C 30.648438 -36.785156 29.023438 -36.609375 26.953125 -35.890625 C 26.015625 -35.578125 25.171875 -34.847656 24.421875 -33.703125 C 23.671875 -32.554688 23.023438 -31.179688 22.484375 -29.578125 C 21.953125 -27.984375 21.46875 -26.34375 21.03125 -24.65625 C 20.601562 -22.96875 20.222656 -21.398438 19.890625 -19.953125 C 19.554688 -18.515625 19.238281 -17.363281 18.9375 -16.5 C 17.8125 -18.664062 16.585938 -20.832031 15.265625 -23 C 13.953125 -25.175781 12.554688 -27.242188 11.078125 -29.203125 C 11.066406 -29.316406 11 -29.65625 10.875 -30.21875 C 10.757812 -30.789062 10.597656 -31.40625 10.390625 -32.0625 C 10.191406 -32.71875 9.929688 -33.191406 9.609375 -33.484375 C 9.117188 -33.921875 8.421875 -34.164062 7.515625 -34.21875 C 6.617188 -34.269531 5.707031 -34.195312 4.78125 -34 C 3.863281 -33.800781 3.144531 -33.570312 2.625 -33.3125 C 1.757812 -32.882812 1.164062 -32.015625 0.84375 -30.703125 C 0.53125 -29.398438 0.394531 -27.851562 0.4375 -26.0625 C 0.488281 -24.28125 0.625 -22.457031 0.84375 -20.59375 C 1.070312 -18.726562 1.3125 -17.023438 1.5625 -15.484375 C 1.8125 -13.953125 1.953125 -12.804688 1.984375 -12.046875 C 2.054688 -11.429688 2.09375 -10.550781 2.09375 -9.40625 C 2.09375 -8.257812 2.125 -7.007812 2.1875 -5.65625 C 2.257812 -4.300781 2.410156 -2.992188 2.640625 -1.734375 C 2.878906 -0.484375 3.25 0.566406 3.75 1.421875 C 4.25 2.273438 4.921875 2.757812 5.765625 2.875 C 6.617188 2.988281 7.710938 2.59375 9.046875 1.6875 Z M 9.046875 1.6875 "/></g></g><g style="fill:#c95b17;fill-opacity:1;"><g transform="translate(252.114133, 255.418085)"><path style="stroke:none" d="M 2.671875 -1.578125 C 2.984375 -0.929688 3.457031 -0.53125 4.09375 -0.375 C 4.726562 -0.21875 5.410156 -0.222656 6.140625 -0.390625 C 6.878906 -0.554688 7.546875 -0.835938 8.140625 -1.234375 C 8.742188 -1.628906 9.148438 -2.0625 9.359375 -2.53125 C 9.867188 -3.695312 10.15625 -4.941406 10.21875 -6.265625 C 10.289062 -7.597656 10.300781 -8.953125 10.25 -10.328125 C 10.207031 -11.703125 10.191406 -12.984375 10.203125 -14.171875 C 10.210938 -14.773438 10.289062 -15.710938 10.4375 -16.984375 C 10.59375 -18.265625 10.734375 -19.726562 10.859375 -21.375 C 10.992188 -23.019531 11.085938 -24.707031 11.140625 -26.4375 C 11.191406 -28.175781 11.128906 -29.800781 10.953125 -31.3125 C 10.773438 -32.832031 10.441406 -34.109375 9.953125 -35.140625 C 9.460938 -36.171875 8.753906 -36.773438 7.828125 -36.953125 C 5.765625 -37.429688 4.1875 -37.375 3.09375 -36.78125 C 2 -36.195312 1.25 -35.269531 0.84375 -34 C 0.445312 -32.738281 0.269531 -31.3125 0.3125 -29.71875 C 0.351562 -28.132812 0.46875 -26.550781 0.65625 -24.96875 C 0.851562 -23.394531 1.003906 -22.019531 1.109375 -20.84375 C 1.203125 -19.4375 1.242188 -17.859375 1.234375 -16.109375 C 1.234375 -14.367188 1.25 -12.585938 1.28125 -10.765625 C 1.3125 -8.941406 1.421875 -7.234375 1.609375 -5.640625 C 1.804688 -4.046875 2.160156 -2.691406 2.671875 -1.578125 Z M 2.671875 -1.578125 "/></g></g><g style="fill:#c95b17;fill-opacity:1;"><g transform="translate(265.174446, 254.775486)"><path style="stroke:none" d="M 16.234375 -1.59375 C 17.085938 -2.175781 17.695312 -3.0625 18.0625 -4.25 C 18.425781 -5.4375 18.644531 -6.757812 18.71875 -8.21875 C 18.789062 -9.675781 18.800781 -11.082031 18.75 -12.4375 C 18.707031 -13.789062 18.703125 -14.890625 18.734375 -15.734375 C 18.785156 -17.117188 18.832031 -18.507812 18.875 -19.90625 C 18.925781 -21.300781 18.9375 -22.6875 18.90625 -24.0625 C 18.925781 -25.175781 18.976562 -25.914062 19.0625 -26.28125 C 19.144531 -26.65625 19.382812 -26.898438 19.78125 -27.015625 C 20.175781 -27.128906 20.828125 -27.328125 21.734375 -27.609375 C 22.523438 -27.828125 23.316406 -28.253906 24.109375 -28.890625 C 24.898438 -29.523438 25.582031 -30.257812 26.15625 -31.09375 C 26.726562 -31.925781 27.078125 -32.734375 27.203125 -33.515625 C 27.335938 -34.304688 27.148438 -34.992188 26.640625 -35.578125 C 26.128906 -36.171875 25.203125 -36.550781 23.859375 -36.71875 C 21.390625 -37.019531 18.863281 -37.109375 16.28125 -36.984375 C 13.707031 -36.859375 11.195312 -36.75 8.75 -36.65625 C 7.257812 -36.625 5.851562 -36.476562 4.53125 -36.21875 C 3.207031 -35.96875 2.148438 -35.421875 1.359375 -34.578125 C 0.578125 -33.734375 0.195312 -32.414062 0.21875 -30.625 C 0.21875 -29.050781 0.5 -27.835938 1.0625 -26.984375 C 1.625 -26.128906 2.285156 -25.53125 3.046875 -25.1875 C 3.804688 -24.84375 4.566406 -24.660156 5.328125 -24.640625 C 6.097656 -24.617188 6.71875 -24.664062 7.1875 -24.78125 C 7.664062 -24.90625 7.863281 -24.960938 7.78125 -24.953125 C 8.3125 -25.066406 8.679688 -24.800781 8.890625 -24.15625 C 9.097656 -23.507812 9.210938 -22.707031 9.234375 -21.75 C 9.265625 -20.789062 9.253906 -19.84375 9.203125 -18.90625 C 9.148438 -17.96875 9.140625 -17.269531 9.171875 -16.8125 C 9.191406 -15.363281 9.25 -13.898438 9.34375 -12.421875 C 9.4375 -10.953125 9.578125 -9.5 9.765625 -8.0625 C 9.835938 -7.226562 9.984375 -6.269531 10.203125 -5.1875 C 10.429688 -4.113281 10.78125 -3.15625 11.25 -2.3125 C 11.71875 -1.46875 12.347656 -0.929688 13.140625 -0.703125 C 13.941406 -0.472656 14.972656 -0.769531 16.234375 -1.59375 Z M 16.234375 -1.59375 "/></g></g><g style="fill:#c95b17;fill-opacity:1;"><g transform="translate(293.987314, 253.357823)"><path style="stroke:none" d="M 7.203125 -0.53125 C 8.253906 -0.851562 8.972656 -1.425781 9.359375 -2.25 C 9.742188 -3.070312 9.96875 -4 10.03125 -5.03125 C 10.09375 -6.070312 10.125 -7.007812 10.125 -7.84375 C 10.15625 -8.757812 10.363281 -9.570312 10.75 -10.28125 C 11.132812 -10.988281 11.628906 -11.375 12.234375 -11.4375 C 12.847656 -11.507812 13.46875 -11.007812 14.09375 -9.9375 C 14.769531 -8.78125 15.515625 -7.675781 16.328125 -6.625 C 17.148438 -5.582031 18.054688 -4.625 19.046875 -3.75 C 20.609375 -2.40625 21.925781 -1.734375 23 -1.734375 C 24.070312 -1.734375 24.863281 -2.175781 25.375 -3.0625 C 25.882812 -3.945312 26.066406 -5.050781 25.921875 -6.375 C 25.785156 -7.707031 25.28125 -9.039062 24.40625 -10.375 C 24.195312 -10.75 23.859375 -11.203125 23.390625 -11.734375 C 22.921875 -12.273438 22.472656 -12.828125 22.046875 -13.390625 C 21.617188 -13.960938 21.332031 -14.515625 21.1875 -15.046875 C 21.039062 -15.578125 21.15625 -16.023438 21.53125 -16.390625 C 22.363281 -17.160156 23.082031 -18.007812 23.6875 -18.9375 C 24.300781 -19.863281 24.8125 -20.835938 25.21875 -21.859375 C 26.34375 -24.671875 26.65625 -27.085938 26.15625 -29.109375 C 25.65625 -31.140625 24.609375 -32.789062 23.015625 -34.0625 C 21.421875 -35.34375 19.5 -36.28125 17.25 -36.875 C 15.007812 -37.46875 12.671875 -37.734375 10.234375 -37.671875 C 7.804688 -37.617188 5.519531 -37.25 3.375 -36.5625 C 3.1875 -36.519531 3.171875 -36.503906 3.328125 -36.515625 C 2.191406 -36.265625 1.394531 -35.640625 0.9375 -34.640625 C 0.488281 -33.640625 0.269531 -32.460938 0.28125 -31.109375 C 0.289062 -29.753906 0.375 -28.414062 0.53125 -27.09375 C 0.6875 -25.78125 0.804688 -24.6875 0.890625 -23.8125 C 1.171875 -20.425781 1.351562 -17.03125 1.4375 -13.625 C 1.53125 -10.21875 1.796875 -6.847656 2.234375 -3.515625 C 2.390625 -2.097656 2.9375 -1.15625 3.875 -0.6875 C 4.820312 -0.21875 5.929688 -0.164062 7.203125 -0.53125 Z M 10.34375 -16.078125 C 10.363281 -16.535156 10.347656 -17.273438 10.296875 -18.296875 C 10.242188 -19.328125 10.226562 -20.398438 10.25 -21.515625 C 10.28125 -22.628906 10.394531 -23.59375 10.59375 -24.40625 C 10.800781 -25.21875 11.15625 -25.660156 11.65625 -25.734375 C 12.53125 -25.847656 13.5 -25.976562 14.5625 -26.125 C 15.632812 -26.28125 16.550781 -26.066406 17.3125 -25.484375 C 18.050781 -24.910156 18.351562 -24.242188 18.21875 -23.484375 C 18.09375 -22.734375 17.695312 -21.957031 17.03125 -21.15625 C 16.363281 -20.363281 15.578125 -19.613281 14.671875 -18.90625 C 13.765625 -18.195312 12.898438 -17.59375 12.078125 -17.09375 C 11.253906 -16.59375 10.675781 -16.253906 10.34375 -16.078125 Z M 10.34375 -16.078125 "/></g></g><g style="fill:#c95b17;fill-opacity:1;"><g transform="translate(323.315711, 251.914794)"><path style="stroke:none" d="M 0.25 0.4375 C 0.738281 1.71875 1.265625 2.441406 1.828125 2.609375 C 2.390625 2.773438 2.960938 2.582031 3.546875 2.03125 C 4.140625 1.488281 4.691406 0.796875 5.203125 -0.046875 C 5.710938 -0.898438 6.144531 -1.726562 6.5 -2.53125 C 6.863281 -3.34375 7.113281 -3.921875 7.25 -4.265625 C 7.488281 -4.929688 8.085938 -5.441406 9.046875 -5.796875 C 10.003906 -6.148438 11.09375 -6.351562 12.3125 -6.40625 C 13.539062 -6.46875 14.695312 -6.421875 15.78125 -6.265625 C 16.863281 -6.109375 17.65625 -5.867188 18.15625 -5.546875 C 18.5625 -5.304688 19.003906 -4.878906 19.484375 -4.265625 C 19.972656 -3.660156 20.488281 -3.050781 21.03125 -2.4375 C 21.582031 -1.832031 22.117188 -1.390625 22.640625 -1.109375 C 23.171875 -0.835938 23.675781 -0.882812 24.15625 -1.25 C 24.644531 -1.613281 25.066406 -2.472656 25.421875 -3.828125 C 25.648438 -4.648438 25.675781 -5.914062 25.5 -7.625 C 25.320312 -9.34375 24.984375 -11.316406 24.484375 -13.546875 C 23.992188 -15.785156 23.390625 -18.0625 22.671875 -20.375 C 21.960938 -22.695312 21.1875 -24.890625 20.34375 -26.953125 C 19.5 -29.023438 18.628906 -30.765625 17.734375 -32.171875 C 16.847656 -33.578125 15.976562 -34.453125 15.125 -34.796875 C 14.257812 -35.097656 13.40625 -34.851562 12.5625 -34.0625 C 11.71875 -33.28125 10.890625 -32.148438 10.078125 -30.671875 C 9.273438 -29.191406 8.523438 -27.5625 7.828125 -25.78125 C 7.128906 -24.007812 6.488281 -22.257812 5.90625 -20.53125 C 5.320312 -18.8125 4.84375 -17.304688 4.46875 -16.015625 C 4.09375 -14.722656 3.816406 -13.867188 3.640625 -13.453125 C 3.335938 -12.585938 2.9375 -11.554688 2.4375 -10.359375 C 1.945312 -9.171875 1.46875 -7.914062 1 -6.59375 C 0.53125 -5.28125 0.195312 -4.003906 0 -2.765625 C -0.1875 -1.523438 -0.101562 -0.457031 0.25 0.4375 Z M 11.890625 -12.53125 C 10.867188 -12.4375 10.285156 -12.644531 10.140625 -13.15625 C 10.003906 -13.664062 10.128906 -14.3125 10.515625 -15.09375 C 10.898438 -15.882812 11.359375 -16.648438 11.890625 -17.390625 C 12.429688 -18.128906 12.863281 -18.65625 13.1875 -18.96875 C 13.3125 -18.863281 13.523438 -18.597656 13.828125 -18.171875 C 14.140625 -17.753906 14.425781 -17.253906 14.6875 -16.671875 C 14.945312 -16.085938 15.070312 -15.492188 15.0625 -14.890625 C 15.050781 -14.296875 14.816406 -13.785156 14.359375 -13.359375 C 13.898438 -12.941406 13.078125 -12.664062 11.890625 -12.53125 Z M 11.890625 -12.53125 "/></g></g><g clip-rule="nonzero" clip-path="url(#b9df956fb3)"><g clip-rule="nonzero" clip-path="url(#b025b00c53)"><path style=" stroke:none;fill-rule:nonzero;fill:#42290d;fill-opacity:1;" d="M 198.652344 90.894531 L 227.132812 90.894531 L 227.132812 119.375 L 198.652344 119.375 Z M 198.652344 90.894531 "/></g></g><g clip-rule="nonzero" clip-path="url(#ef4003f00c)"><g clip-rule="nonzero" clip-path="url(#acf3f61b72)"><path style=" stroke:none;fill-rule:nonzero;fill:#42290d;fill-opacity:1;" d="M 258.324219 71.585938 L 284.929688 71.585938 L 284.929688 98.191406 L 258.324219 98.191406 Z M 258.324219 71.585938 "/></g></g></g></svg>