<svg xmlns="http://www.w3.org/2000/svg" xmlns:xlink="http://www.w3.org/1999/xlink" width="500" zoomAndPan="magnify" viewBox="0 0 375 374.999991" height="500" preserveAspectRatio="xMidYMid meet" version="1.2"><defs><clipPath id="3fca78a22e"><path d="M 103.703125 110 L 204 110 L 204 210 L 103.703125 210 Z M 103.703125 110 "/></clipPath><clipPath id="6d329767c9"><path d="M 208 147 L 285 147 L 285 275.777344 L 208 275.777344 Z M 208 147 "/></clipPath><clipPath id="a502bfa5f0"><path d="M 72.238281 248.078125 L 155.488281 248.078125 L 155.488281 331 L 72.238281 331 Z M 72.238281 248.078125 "/></clipPath></defs><g id="e27f785826"><rect x="0" width="375" y="0" height="374.999991" style="fill:#ffffff;fill-opacity:1;stroke:none;"/><rect x="0" width="375" y="0" height="374.999991" style="fill:#ffffff;fill-opacity:1;stroke:none;"/><g clip-rule="nonzero" clip-path="url(#3fca78a22e)"><path style=" stroke:none;fill-rule:nonzero;fill:#ffde59;fill-opacity:1;" d="M 203.625 146.375 C 203.34375 146.09375 186.410156 128.597656 186.691406 128.878906 L 186.691406 145.53125 L 181.046875 145.53125 L 178.222656 118.152344 C 178.222656 117.589844 176.25 117.023438 173.707031 117.023438 C 171.167969 117.023438 169.191406 117.589844 169.191406 118.152344 L 166.371094 145.53125 L 163.546875 145.53125 L 147.460938 128.878906 L 147.460938 145.53125 L 146.332031 145.53125 L 130.246094 128.878906 L 130.246094 145.53125 L 124.601562 145.53125 C 124.035156 140.449219 121.214844 111.378906 121.214844 111.660156 C 121.214844 111.097656 118.957031 110.53125 116.414062 110.53125 C 113.875 110.53125 111.617188 111.097656 111.617188 111.660156 C 109.640625 133.394531 108.792969 141.859375 108.511719 144.964844 C 108.511719 144.964844 108.511719 144.964844 108.511719 145.246094 C 108.511719 145.246094 108.511719 144.964844 108.511719 144.964844 C 108.511719 145.246094 108.511719 145.246094 108.511719 145.53125 C 108.511719 145.53125 108.511719 145.8125 108.511719 145.8125 L 103.996094 145.8125 L 103.996094 209.316406 L 169.757812 209.316406 L 169.757812 167.542969 L 199.675781 167.542969 L 199.675781 209.03125 L 203.625 209.03125 C 203.625 171.496094 203.625 183.914062 203.625 146.375 Z M 123.472656 198.589844 L 110.769531 198.589844 L 110.769531 187.863281 L 123.472656 187.863281 Z M 123.472656 182.503906 L 110.769531 182.503906 L 110.769531 172.058594 L 123.472656 172.058594 Z M 123.472656 166.699219 L 110.769531 166.699219 L 110.769531 156.253906 L 123.472656 156.253906 Z M 140.96875 198.589844 L 128.269531 198.589844 L 128.269531 188.148438 L 140.96875 188.148438 Z M 140.96875 182.503906 L 128.269531 182.503906 L 128.269531 172.058594 L 140.96875 172.058594 Z M 140.96875 166.414062 L 128.269531 166.414062 L 128.269531 155.972656 L 140.96875 155.972656 Z M 158.46875 198.589844 L 145.765625 198.589844 L 145.765625 188.148438 L 158.46875 188.148438 Z M 158.46875 182.503906 L 145.765625 182.503906 L 145.765625 172.058594 L 158.46875 172.058594 Z M 158.46875 166.414062 L 145.765625 166.414062 L 145.765625 155.972656 L 158.46875 155.972656 Z M 158.46875 166.414062 "/></g><path style=" stroke:none;fill-rule:nonzero;fill:#ffde59;fill-opacity:1;" d="M 125.445312 109.121094 C 126.859375 110.816406 131.089844 111.097656 133.066406 109.402344 C 135.890625 110.816406 140.121094 109.402344 140.121094 107.429688 C 140.121094 107.144531 140.121094 106.863281 139.839844 106.582031 C 144.921875 104.886719 140.6875 100.089844 135.605469 102.066406 C 134.476562 99.808594 129.679688 99.527344 127.703125 101.21875 C 124.316406 100.371094 120.367188 102.347656 121.496094 104.605469 C 119.519531 104.886719 118.109375 105.734375 118.109375 107.144531 C 118.109375 109.402344 122.625 110.53125 125.445312 109.121094 Z M 125.445312 109.121094 "/><g clip-rule="nonzero" clip-path="url(#6d329767c9)"><path style=" stroke:none;fill-rule:nonzero;fill:#ffde59;fill-opacity:1;" d="M 271.644531 157.949219 C 265.152344 148.351562 233.261719 141.015625 221.972656 157.382812 C 221.40625 158.230469 208.421875 177.703125 208.707031 208.75 C 208.707031 211.855469 211.246094 214.113281 214.351562 214.113281 C 217.453125 214.113281 219.996094 211.574219 219.710938 208.46875 C 219.710938 195.203125 222.535156 184.195312 225.359375 176.292969 L 229.027344 223.425781 C 229.027344 223.707031 229.027344 223.707031 229.027344 223.992188 C 229.027344 224.273438 229.027344 224.273438 229.027344 224.554688 L 226.488281 266.324219 C 226.203125 270.84375 229.589844 274.792969 234.390625 275.074219 C 238.90625 275.359375 242.855469 271.972656 243.136719 267.171875 C 243.703125 257.578125 245.679688 226.25 245.679688 224.835938 L 247.9375 224.835938 C 247.9375 226.53125 249.066406 246.003906 250.476562 267.171875 C 250.757812 271.6875 254.425781 275.074219 258.660156 275.074219 C 263.460938 275.074219 267.128906 271.125 266.847656 266.324219 L 264.304688 224.554688 C 264.304688 224.273438 264.304688 224.273438 264.304688 223.992188 C 264.304688 223.707031 264.304688 223.707031 264.304688 223.425781 L 268.257812 176.292969 C 271.078125 183.914062 273.621094 194.921875 273.621094 208.75 C 273.621094 211.855469 276.160156 214.394531 278.980469 214.394531 C 282.085938 214.394531 284.625 211.855469 284.625 209.03125 C 284.910156 177.703125 272.207031 158.796875 271.644531 157.949219 Z M 246.523438 195.484375 L 240.878906 188.429688 L 242.855469 164.441406 L 243.136719 162.183594 L 250.476562 162.183594 L 252.453125 188.429688 Z M 250.195312 159.925781 L 250.195312 160.207031 L 243.421875 160.207031 L 241.164062 152.867188 C 244.832031 151.175781 248.78125 151.175781 252.453125 152.867188 Z M 250.195312 159.925781 "/></g><path style=" stroke:none;fill-rule:nonzero;fill:#ffde59;fill-opacity:1;" d="M 261.484375 130.289062 C 261.484375 131.253906 261.390625 132.207031 261.203125 133.152344 C 261.011719 134.097656 260.734375 135.015625 260.367188 135.90625 C 259.996094 136.796875 259.546875 137.640625 259.011719 138.441406 C 258.476562 139.246094 257.867188 139.984375 257.183594 140.667969 C 256.503906 141.347656 255.761719 141.957031 254.960938 142.492188 C 254.160156 143.027344 253.3125 143.480469 252.421875 143.847656 C 251.535156 144.21875 250.617188 144.496094 249.671875 144.683594 C 248.726562 144.871094 247.769531 144.964844 246.808594 144.964844 C 245.84375 144.964844 244.890625 144.871094 243.945312 144.683594 C 243 144.496094 242.082031 144.21875 241.191406 143.847656 C 240.300781 143.480469 239.453125 143.027344 238.652344 142.492188 C 237.851562 141.957031 237.109375 141.347656 236.429688 140.667969 C 235.75 139.984375 235.140625 139.246094 234.605469 138.441406 C 234.070312 137.640625 233.617188 136.796875 233.25 135.90625 C 232.878906 135.015625 232.601562 134.097656 232.414062 133.152344 C 232.226562 132.207031 232.132812 131.253906 232.132812 130.289062 C 232.132812 129.324219 232.226562 128.371094 232.414062 127.425781 C 232.601562 126.480469 232.878906 125.5625 233.25 124.671875 C 233.617188 123.78125 234.070312 122.9375 234.605469 122.136719 C 235.140625 121.335938 235.75 120.59375 236.429688 119.910156 C 237.109375 119.230469 237.851562 118.621094 238.652344 118.085938 C 239.453125 117.550781 240.300781 117.097656 241.191406 116.730469 C 242.082031 116.363281 243 116.082031 243.945312 115.894531 C 244.890625 115.707031 245.84375 115.613281 246.808594 115.613281 C 247.769531 115.613281 248.726562 115.707031 249.671875 115.894531 C 250.617188 116.082031 251.535156 116.363281 252.421875 116.730469 C 253.3125 117.097656 254.160156 117.550781 254.960938 118.085938 C 255.761719 118.621094 256.503906 119.230469 257.183594 119.910156 C 257.867188 120.59375 258.476562 121.335938 259.011719 122.136719 C 259.546875 122.9375 259.996094 123.78125 260.367188 124.671875 C 260.734375 125.5625 261.011719 126.480469 261.203125 127.425781 C 261.390625 128.371094 261.484375 129.324219 261.484375 130.289062 Z M 261.484375 130.289062 "/><path style=" stroke:none;fill-rule:nonzero;fill:#ffde59;fill-opacity:1;" d="M 172.578125 170.367188 L 196.851562 170.367188 L 196.851562 209.03125 L 172.578125 209.03125 Z M 172.578125 170.367188 "/><g clip-rule="nonzero" clip-path="url(#a502bfa5f0)"><path style=" stroke:none;fill-rule:evenodd;fill:#ffffff;fill-opacity:1;" d="M 75 305.714844 C 74.570312 305.527344 74.171875 305.257812 73.820312 304.90625 L 73.742188 304.824219 C 72.277344 303.34375 72.292969 300.957031 73.773438 299.496094 L 75 298.28125 L 75 272.648438 C 75 272.207031 75.25 271.800781 75.644531 271.601562 L 99.390625 259.554688 C 99.953125 259.269531 100.640625 259.480469 100.945312 260.035156 C 100.945312 260.035156 106.988281 270.933594 106.988281 270.933594 L 120.449219 261.449219 C 120.734375 261.246094 121.09375 261.183594 121.429688 261.273438 C 121.765625 261.363281 122.042969 261.601562 122.191406 261.917969 L 126.574219 271.472656 L 134.308594 271.472656 L 136.480469 255.875 L 136.109375 255.875 C 135.460938 255.875 134.9375 255.347656 134.9375 254.699219 L 134.9375 249.25 C 134.9375 248.605469 135.460938 248.078125 136.109375 248.078125 L 148.59375 248.078125 C 149.242188 248.078125 149.769531 248.605469 149.769531 249.25 L 149.769531 254.699219 C 149.769531 255.347656 149.242188 255.875 148.59375 255.875 L 148.222656 255.875 L 150.394531 271.472656 L 154.269531 271.472656 C 154.917969 271.472656 155.441406 272 155.441406 272.648438 L 155.441406 314.179688 C 155.441406 314.828125 154.917969 315.351562 154.269531 315.351562 L 129.078125 315.351562 L 116.359375 327.984375 C 115.738281 328.601562 114.738281 328.597656 114.121094 327.976562 L 102.464844 316.242188 C 102.394531 316.171875 102.332031 316.09375 102.277344 316.015625 L 103.613281 325.953125 C 103.761719 327.078125 103.460938 328.214844 102.773438 329.117188 C 102.082031 330.015625 101.066406 330.609375 99.941406 330.757812 L 99.417969 330.828125 C 97.273438 331.117188 95.253906 329.757812 94.710938 327.667969 L 91.976562 317.160156 L 89.269531 327.660156 C 88.726562 329.753906 86.707031 331.117188 84.558594 330.828125 L 84.042969 330.757812 C 82.917969 330.609375 81.898438 330.015625 81.210938 329.117188 C 80.523438 328.214844 80.222656 327.078125 80.371094 325.953125 L 81.792969 315.351562 L 76.171875 315.351562 C 75.527344 315.351562 75 314.828125 75 314.179688 Z M 77.347656 295.964844 L 80.3125 293.03125 C 82.292969 291.074219 84.96875 289.976562 87.753906 289.976562 L 96.230469 289.976562 C 99.015625 289.976562 101.691406 291.074219 103.671875 293.03125 L 109.804688 299.09375 C 111.304688 298.425781 113.132812 298.707031 114.355469 299.941406 L 115.484375 301.078125 L 119.136719 297.453125 C 119.75 296.84375 120.757812 296.84375 121.375 297.464844 L 133.027344 309.199219 C 133.644531 309.820312 133.636719 310.824219 133.023438 311.433594 L 131.4375 313.007812 C 137.894531 313.007812 153.097656 313.007812 153.097656 313.007812 C 153.097656 313.007812 153.097656 273.820312 153.097656 273.820312 L 125.820312 273.820312 C 125.363281 273.820312 124.945312 273.554688 124.753906 273.136719 C 124.753906 273.136719 120.644531 264.179688 120.644531 264.179688 L 107.269531 273.605469 C 106.996094 273.796875 106.65625 273.863281 106.332031 273.789062 C 106.007812 273.714844 105.730469 273.507812 105.570312 273.214844 L 99.441406 262.160156 L 77.347656 273.367188 Z M 111.175781 301.109375 C 111.550781 302.382812 111.238281 303.816406 110.242188 304.824219 L 110.160156 304.90625 C 109.105469 305.972656 107.574219 306.277344 106.246094 305.820312 C 106.042969 306.417969 106.179688 307.109375 106.65625 307.589844 L 107.785156 308.726562 L 113.820312 302.734375 L 112.691406 301.597656 C 112.28125 301.183594 111.710938 301.019531 111.175781 301.109375 Z M 104.308594 304.417969 L 101.269531 301.417969 L 101.269531 308.484375 L 102.089844 314.613281 C 102.167969 314.390625 102.292969 314.183594 102.472656 314.003906 L 106.121094 310.382812 L 104.992188 309.242188 C 103.695312 307.9375 103.464844 305.960938 104.308594 304.417969 Z M 85.050781 308.71875 L 82.699219 326.265625 C 82.628906 326.769531 82.765625 327.285156 83.074219 327.691406 C 83.386719 328.097656 83.847656 328.363281 84.351562 328.433594 L 84.871094 328.503906 C 85.839844 328.632812 86.753906 328.019531 86.996094 327.070312 L 90.835938 312.191406 C 91.140625 311.101562 92.734375 311.039062 93.109375 312.1875 L 96.980469 327.078125 C 97.226562 328.019531 98.140625 328.632812 99.105469 328.503906 L 99.628906 328.433594 C 100.136719 328.363281 100.597656 328.097656 100.90625 327.691406 C 101.21875 327.285156 101.355469 326.769531 101.285156 326.265625 L 98.933594 308.71875 C 98.925781 308.667969 98.921875 308.613281 98.921875 308.5625 L 98.921875 298.609375 C 98.921875 298.136719 99.207031 297.707031 99.644531 297.527344 C 100.082031 297.34375 100.585938 297.441406 100.921875 297.773438 L 106.480469 303.269531 C 107.039062 303.820312 107.941406 303.816406 108.492188 303.257812 L 108.570312 303.175781 C 109.125 302.617188 109.117188 301.714844 108.558594 301.164062 L 102.023438 294.699219 C 100.480469 293.175781 98.398438 292.320312 96.230469 292.320312 L 87.753906 292.320312 C 85.585938 292.320312 83.503906 293.175781 81.960938 294.699219 L 75.421875 301.164062 C 74.863281 301.714844 74.859375 302.617188 75.410156 303.175781 L 75.492188 303.257812 C 75.722656 303.488281 76.011719 303.625 76.3125 303.667969 C 76.320312 303.667969 76.324219 303.667969 76.332031 303.667969 C 76.746094 303.71875 77.183594 303.585938 77.503906 303.269531 L 83.0625 297.773438 C 83.398438 297.441406 83.902344 297.34375 84.339844 297.527344 C 84.777344 297.707031 85.058594 298.136719 85.058594 298.609375 L 85.058594 308.5625 C 85.058594 308.613281 85.054688 308.667969 85.050781 308.71875 Z M 138.851562 255.875 L 136.675781 271.472656 L 148.027344 271.472656 L 145.855469 255.875 Z M 137.28125 253.527344 C 137.28125 253.527344 147.421875 253.527344 147.421875 253.527344 L 147.421875 250.425781 C 147.421875 250.425781 137.28125 250.425781 137.28125 250.425781 C 137.28125 250.425781 137.28125 253.527344 137.28125 253.527344 Z M 107.585938 318.070312 L 115.25 325.78125 L 130.824219 310.308594 L 123.164062 302.597656 L 119.238281 311.910156 C 118.785156 312.992188 118.011719 313.757812 116.925781 314.207031 Z M 121.378906 300.796875 L 120.246094 299.65625 L 104.667969 315.128906 L 105.800781 316.269531 L 116.03125 312.039062 C 116.519531 311.835938 116.871094 311.488281 117.078125 311 Z M 77.347656 305.929688 L 77.347656 313.007812 L 82.105469 313.007812 L 82.714844 308.484375 L 82.714844 301.417969 L 79.152344 304.9375 C 78.636719 305.449219 78.007812 305.78125 77.347656 305.929688 Z M 134.9375 281.714844 C 134.9375 281.066406 135.460938 280.542969 136.109375 280.542969 L 148.59375 280.542969 C 149.242188 280.542969 149.769531 281.066406 149.769531 281.714844 L 149.769531 290.34375 C 149.769531 290.992188 149.242188 291.515625 148.59375 291.515625 L 136.109375 291.515625 C 135.460938 291.515625 134.9375 290.992188 134.9375 290.34375 Z M 147.421875 282.890625 L 137.28125 282.890625 C 137.28125 282.890625 137.28125 289.167969 137.28125 289.167969 C 137.28125 289.167969 147.421875 289.167969 147.421875 289.167969 Z M 128.878906 281.714844 L 128.878906 290.34375 C 128.878906 290.992188 128.355469 291.515625 127.707031 291.515625 L 115.222656 291.515625 C 114.574219 291.515625 114.046875 290.992188 114.046875 290.34375 L 114.046875 281.714844 C 114.046875 281.066406 114.574219 280.542969 115.222656 280.542969 L 127.707031 280.542969 C 128.355469 280.542969 128.878906 281.066406 128.878906 281.714844 Z M 126.535156 282.890625 C 126.535156 282.890625 116.394531 282.890625 116.394531 282.890625 C 116.394531 282.890625 116.394531 289.167969 116.394531 289.167969 C 116.394531 289.167969 126.535156 289.167969 126.535156 289.167969 Z M 91.992188 274.128906 C 96.273438 274.128906 99.75 277.605469 99.75 281.890625 C 99.75 286.171875 96.273438 289.648438 91.992188 289.648438 C 87.710938 289.648438 84.234375 286.171875 84.234375 281.890625 C 84.234375 277.605469 87.710938 274.128906 91.992188 274.128906 Z M 91.992188 276.476562 C 89.003906 276.476562 86.578125 278.902344 86.578125 281.890625 C 86.578125 284.875 89.003906 287.300781 91.992188 287.300781 C 94.980469 287.300781 97.402344 284.875 97.402344 281.890625 C 97.402344 278.902344 94.980469 276.476562 91.992188 276.476562 Z M 91.992188 276.476562 "/></g></g></svg>