<svg xmlns="http://www.w3.org/2000/svg" xmlns:xlink="http://www.w3.org/1999/xlink" width="500" zoomAndPan="magnify" viewBox="0 0 375 374.999991" height="500" preserveAspectRatio="xMidYMid meet" version="1.2"><defs><clipPath id="9de9a777bc"><path d="M 75.378906 188 L 162 188 L 162 228 L 75.378906 228 Z M 75.378906 188 "/></clipPath><clipPath id="e9da071421"><path d="M 197 101.5 L 208 101.5 L 208 197 L 197 197 Z M 197 101.5 "/></clipPath><clipPath id="51d4e8c698"><path d="M 154.738281 185.445312 L 254.472656 185.445312 L 254.472656 233.15625 L 154.738281 233.15625 Z M 154.738281 185.445312 "/></clipPath><clipPath id="f02bf87fe2"><path d="M 228.019531 150.78125 L 306.378906 150.78125 L 306.378906 184.835938 L 228.019531 184.835938 Z M 228.019531 150.78125 "/></clipPath><clipPath id="262bd78fd6"><path d="M 131 255 L 140 255 L 140 263.835938 L 131 263.835938 Z M 131 255 "/></clipPath><clipPath id="37246c85b7"><path d="M 155 255 L 163 255 L 163 263.835938 L 155 263.835938 Z M 155 255 "/></clipPath><clipPath id="38a305b091"><path d="M 164 255 L 173 255 L 173 263.835938 L 164 263.835938 Z M 164 255 "/></clipPath><clipPath id="53edc90817"><path d="M 225 255 L 233 255 L 233 263.835938 L 225 263.835938 Z M 225 255 "/></clipPath><clipPath id="f9cec7e081"><path d="M 236 255 L 245 255 L 245 263.835938 L 236 263.835938 Z M 236 255 "/></clipPath><clipPath id="998a36dfdf"><path d="M 125 237.585938 L 274.894531 237.585938 L 274.894531 260 L 125 260 Z M 125 237.585938 "/></clipPath><clipPath id="0f19b96435"><path d="M 248 255 L 257 255 L 257 263.835938 L 248 263.835938 Z M 248 255 "/></clipPath></defs><g id="5b7766accd"><rect x="0" width="375" y="0" height="374.999991" style="fill:#ffffff;fill-opacity:1;stroke:none;"/><rect x="0" width="375" y="0" height="374.999991" style="fill:#ffffff;fill-opacity:1;stroke:none;"/><path style=" stroke:none;fill-rule:nonzero;fill:#ff3131;fill-opacity:1;" d="M 97.707031 201.484375 L 97.707031 167.269531 C 97.707031 166.132812 98.628906 165.207031 99.765625 165.207031 L 131.300781 165.207031 C 132.4375 165.207031 133.363281 166.132812 133.363281 167.269531 L 133.363281 201.484375 L 137.484375 201.484375 L 137.484375 167.269531 C 137.484375 163.859375 134.710938 161.085938 131.300781 161.085938 L 99.765625 161.085938 C 96.355469 161.085938 93.582031 163.859375 93.582031 167.269531 L 93.582031 201.484375 L 97.707031 201.484375 "/><path style=" stroke:none;fill-rule:nonzero;fill:#ff3131;fill-opacity:1;" d="M 116.769531 201.378906 L 114.296875 201.378906 L 114.296875 163.457031 L 116.769531 163.457031 L 116.769531 201.378906 "/><g clip-rule="nonzero" clip-path="url(#9de9a777bc)"><path style=" stroke:none;fill-rule:nonzero;fill:#ff3131;fill-opacity:1;" d="M 161.117188 227.246094 L 75.378906 227.246094 L 75.378906 188.085938 L 94.75 188.085938 L 94.75 190.285156 L 77.164062 190.285156 L 77.164062 222.714844 L 161.117188 222.714844 L 161.117188 227.246094 "/></g><path style=" stroke:none;fill-rule:nonzero;fill:#ff3131;fill-opacity:1;" d="M 162.355469 204.023438 L 76.0625 204.023438 L 76.0625 200.039062 L 162.355469 200.039062 L 162.355469 204.023438 "/><path style=" stroke:none;fill-rule:nonzero;fill:#ff3131;fill-opacity:1;" d="M 136.523438 188.359375 L 160.84375 188.359375 L 161.117188 202.238281 L 159.46875 202.238281 L 159.46875 190.558594 L 135.835938 190.558594 L 136.523438 188.359375 "/><path style=" stroke:none;fill-rule:nonzero;fill:#ff3131;fill-opacity:1;" d="M 100.042969 215.980469 L 84.652344 215.5 L 84.652344 220.375 L 92.550781 220.03125 L 86.507812 219.722656 L 86.507812 216.390625 L 100.042969 215.980469 "/><path style=" stroke:none;fill-rule:nonzero;fill:#ff3131;fill-opacity:1;" d="M 153.078125 215.980469 L 137.691406 215.5 L 137.691406 220.375 L 145.589844 220.03125 L 139.546875 219.722656 L 139.546875 216.390625 L 153.078125 215.980469 "/><path style=" stroke:none;fill-rule:nonzero;fill:#ff3131;fill-opacity:1;" d="M 144.90625 198.390625 C 143.199219 198.390625 141.8125 197.007812 141.8125 195.300781 C 141.8125 193.59375 143.199219 192.207031 144.90625 192.207031 C 146.316406 192.207031 147.496094 193.160156 147.863281 194.457031 C 147.496094 192.617188 145.875 191.230469 143.925781 191.230469 C 141.707031 191.230469 139.90625 193.027344 139.90625 195.25 C 139.90625 197.46875 141.707031 199.269531 143.925781 199.269531 C 145.660156 199.269531 147.125 198.164062 147.6875 196.625 C 147.191406 197.667969 146.136719 198.390625 144.90625 198.390625 "/><path style=" stroke:none;fill-rule:nonzero;fill:#ff3131;fill-opacity:1;" d="M 153.714844 198.390625 C 152.007812 198.390625 150.625 197.007812 150.625 195.300781 C 150.625 193.59375 152.007812 192.207031 153.714844 192.207031 C 155.128906 192.207031 156.304688 193.160156 156.675781 194.457031 C 156.308594 192.617188 154.683594 191.230469 152.738281 191.230469 C 150.515625 191.230469 148.71875 193.027344 148.71875 195.25 C 148.71875 197.46875 150.515625 199.269531 152.738281 199.269531 C 154.46875 199.269531 155.933594 198.164062 156.5 196.625 C 156 197.667969 154.945312 198.390625 153.714844 198.390625 "/><path style=" stroke:none;fill-rule:nonzero;fill:#ff3131;fill-opacity:1;" d="M 84.308594 198.390625 C 82.601562 198.390625 81.21875 197.007812 81.21875 195.300781 C 81.21875 193.59375 82.601562 192.207031 84.308594 192.207031 C 85.722656 192.207031 86.898438 193.160156 87.269531 194.457031 C 86.898438 192.617188 85.277344 191.230469 83.328125 191.230469 C 81.109375 191.230469 79.3125 193.027344 79.3125 195.25 C 79.3125 197.46875 81.109375 199.269531 83.328125 199.269531 C 85.0625 199.269531 86.527344 198.164062 87.089844 196.625 C 86.59375 197.667969 85.542969 198.390625 84.308594 198.390625 "/><path style=" stroke:none;fill-rule:nonzero;fill:#ff3131;fill-opacity:1;" d="M 93.121094 198.390625 C 91.414062 198.390625 90.027344 197.007812 90.027344 195.300781 C 90.027344 193.59375 91.414062 192.207031 93.121094 192.207031 C 94.53125 192.207031 95.710938 193.160156 96.078125 194.457031 C 95.710938 192.617188 94.089844 191.230469 92.140625 191.230469 C 89.921875 191.230469 88.121094 193.027344 88.121094 195.25 C 88.121094 197.46875 89.921875 199.269531 92.140625 199.269531 C 93.875 199.269531 95.339844 198.164062 95.902344 196.625 C 95.40625 197.667969 94.351562 198.390625 93.121094 198.390625 "/><path style=" stroke:none;fill-rule:nonzero;fill:#ff3131;fill-opacity:1;" d="M 111.722656 200.96875 L 110.792969 167.167969 L 109.867188 200.761719 Z M 111.722656 200.96875 "/><path style=" stroke:none;fill-rule:nonzero;fill:#ff3131;fill-opacity:1;" d="M 107.917969 201.792969 L 107.050781 170.15625 L 106.175781 201.792969 Z M 107.917969 201.792969 "/><path style=" stroke:none;fill-rule:nonzero;fill:#ff3131;fill-opacity:1;" d="M 104.027344 201.792969 L 103.269531 174.175781 L 102.507812 201.792969 Z M 104.027344 201.792969 "/><path style=" stroke:none;fill-rule:nonzero;fill:#ff3131;fill-opacity:1;" d="M 100.695312 201.792969 L 100.074219 179.324219 L 99.457031 201.792969 Z M 100.695312 201.792969 "/><path style=" stroke:none;fill-rule:nonzero;fill:#ff3131;fill-opacity:1;" d="M 119.242188 200.867188 L 120.171875 167.0625 L 121.097656 200.660156 Z M 119.242188 200.867188 "/><path style=" stroke:none;fill-rule:nonzero;fill:#ff3131;fill-opacity:1;" d="M 123.183594 201.414062 L 124.050781 169.777344 L 124.925781 201.414062 Z M 123.183594 201.414062 "/><path style=" stroke:none;fill-rule:nonzero;fill:#ff3131;fill-opacity:1;" d="M 126.9375 201.691406 L 127.695312 174.070312 L 128.457031 201.691406 Z M 126.9375 201.691406 "/><path style=" stroke:none;fill-rule:nonzero;fill:#ff3131;fill-opacity:1;" d="M 130.269531 201.691406 L 130.890625 179.222656 L 131.507812 201.691406 Z M 130.269531 201.691406 "/><path style=" stroke:none;fill-rule:nonzero;fill:#ff3131;fill-opacity:1;" d="M 140.917969 125.566406 L 191.484375 120.621094 L 191.484375 140.679688 L 189.148438 140.40625 L 189.148438 122.683594 L 140.917969 125.566406 "/><path style=" stroke:none;fill-rule:nonzero;fill:#ff3131;fill-opacity:1;" d="M 121.546875 145.773438 L 121.015625 146.992188 L 149.988281 145.488281 Z M 121.546875 145.773438 "/><path style=" stroke:none;fill-rule:nonzero;fill:#ff3131;fill-opacity:1;" d="M 120.019531 149.214844 L 119.226562 151.039062 L 162.628906 148.789062 Z M 120.019531 149.214844 "/><path style=" stroke:none;fill-rule:nonzero;fill:#ff3131;fill-opacity:1;" d="M 118.238281 153.304688 L 117.242188 155.589844 L 171.5625 152.773438 Z M 118.238281 153.304688 "/><path style=" stroke:none;fill-rule:nonzero;fill:#ff3131;fill-opacity:1;" d="M 188.1875 122.132812 C 188.1875 122.132812 176.78125 126.664062 175.410156 137.660156 C 175.394531 137.773438 175.382812 137.886719 175.371094 138.003906 L 174.652344 138.003906 L 174.652344 156.238281 L 116.597656 157.71875 L 98.632812 161.222656 L 134.875 162.117188 L 177.882812 157.855469 L 177.882812 139.308594 C 177.882812 139.308594 177.882812 129.414062 190.25 122.683594 L 188.1875 122.132812 "/><path style=" stroke:none;fill-rule:nonzero;fill:#ff3131;fill-opacity:1;" d="M 135.699219 164.726562 L 171.699219 162.941406 L 136.113281 166.925781 Z M 135.699219 164.726562 "/><path style=" stroke:none;fill-rule:nonzero;fill:#ff3131;fill-opacity:1;" d="M 183.394531 181.703125 C 183.394531 183.523438 181.914062 185.484375 180.09375 185.484375 L 178.144531 185.484375 C 176.320312 185.484375 174.84375 183.523438 174.84375 181.703125 L 174.84375 166.371094 C 174.84375 164.546875 176.320312 162.3125 178.144531 162.3125 L 180.09375 162.3125 C 181.914062 162.3125 183.394531 164.546875 183.394531 166.371094 Z M 181.730469 160.332031 L 177.746094 160.332031 C 175.46875 160.332031 173.625 162.175781 173.625 164.453125 L 173.625 183.621094 C 173.625 185.898438 175.46875 187.742188 177.746094 187.742188 L 181.730469 187.742188 C 184.007812 187.742188 185.851562 185.898438 185.851562 183.621094 L 185.851562 164.453125 C 185.851562 162.175781 184.007812 160.332031 181.730469 160.332031 "/><path style=" stroke:none;fill-rule:nonzero;fill:#ff3131;fill-opacity:1;" d="M 165.027344 168.664062 L 165.027344 180.597656 L 166.585938 180.597656 L 166.585938 168.542969 L 165.027344 168.664062 "/><path style=" stroke:none;fill-rule:nonzero;fill:#ff3131;fill-opacity:1;" d="M 161.765625 168.921875 L 161.765625 180.5625 L 163.324219 180.5625 L 163.324219 168.800781 L 161.765625 168.921875 "/><path style=" stroke:none;fill-rule:nonzero;fill:#ff3131;fill-opacity:1;" d="M 158.054688 169.210938 L 158.054688 180.667969 L 159.785156 180.667969 L 159.785156 169.078125 L 158.054688 169.210938 "/><path style=" stroke:none;fill-rule:nonzero;fill:#ff3131;fill-opacity:1;" d="M 153.835938 169.542969 L 153.835938 180.667969 L 155.757812 180.667969 L 155.757812 169.390625 L 153.835938 169.542969 "/><path style=" stroke:none;fill-rule:nonzero;fill:#ff3131;fill-opacity:1;" d="M 180.457031 157.890625 L 194.78125 159.746094 L 194.78125 145.214844 L 192 144.90625 L 192 158.304688 L 180.457031 157.890625 "/><path style=" stroke:none;fill-rule:nonzero;fill:#ff3131;fill-opacity:1;" d="M 206.632812 148.617188 L 206.632812 165.105469 L 211.476562 165.003906 L 211.476562 149.132812 L 206.632812 148.617188 "/><path style=" stroke:none;fill-rule:nonzero;fill:#ff3131;fill-opacity:1;" d="M 141.59375 125.523438 L 145.429688 125.285156 L 145.429688 111.929688 L 138.132812 102.285156 C 136.773438 105.5 137.390625 108.21875 137.390625 108.21875 L 141.59375 113.535156 L 141.59375 125.523438 "/><g clip-rule="nonzero" clip-path="url(#e9da071421)"><path style=" stroke:none;fill-rule:nonzero;fill:#ff3131;fill-opacity:1;" d="M 206 105.753906 C 206 105.753906 199.707031 112.578125 199.507812 112.789062 C 199.507812 113.070312 199.507812 194.542969 199.507812 194.542969 C 199.507812 194.773438 199.289062 194.957031 199.011719 194.957031 C 198.738281 194.957031 198.519531 194.773438 198.519531 194.542969 L 198.519531 112.511719 L 205.214844 105.253906 C 205.382812 105.074219 205.691406 105.039062 205.910156 105.179688 C 206.035156 105.261719 206.101562 105.382812 206.101562 105.503906 C 206.101562 105.59375 206.070312 105.683594 206 105.753906 Z M 206.761719 101.519531 L 197.035156 112.238281 L 197.035156 196.46875 L 202.148438 196.054688 L 202.148438 114.023438 L 207.75 108.117188 C 207.75 108.117188 208.574219 105.09375 206.761719 101.519531 "/></g><path style=" stroke:none;fill-rule:nonzero;fill:#ff3131;fill-opacity:1;" d="M 198.527344 140.585938 L 177.605469 136.144531 L 126.492188 139.71875 C 126.492188 139.71875 129.105469 130.652344 138.171875 125.980469 C 138.171875 125.980469 129.101562 127.355469 122.78125 142.878906 L 176.921875 140.269531 L 198.285156 143.996094 L 198.527344 140.585938 "/><path style=" stroke:none;fill-rule:nonzero;fill:#ff3131;fill-opacity:1;" d="M 217.042969 152.636719 L 213.882812 143.839844 L 201.390625 141.191406 L 201.570312 144.570312 L 212.371094 146.453125 L 214.84375 153.1875 L 216.90625 194.683594 L 218.96875 194.132812 L 217.042969 152.636719 "/><path style=" stroke:none;fill-rule:nonzero;fill:#ff3131;fill-opacity:1;" d="M 217.867188 190.421875 C 217.867188 190.421875 220.753906 185.890625 224.875 185.339844 C 228.996094 184.789062 236.828125 184.238281 236.828125 184.238281 L 223.226562 183.828125 C 223.226562 183.828125 220.066406 184.378906 217.457031 187.398438 L 217.867188 190.421875 "/><path style=" stroke:none;fill-rule:nonzero;fill:#ff3131;fill-opacity:1;" d="M 238.203125 200.660156 C 237.789062 200.660156 237.445312 199.78125 237.445312 198.703125 C 237.445312 197.617188 237.789062 196.742188 238.203125 196.742188 C 238.621094 196.742188 238.957031 197.617188 238.957031 198.703125 C 238.957031 199.78125 238.621094 200.660156 238.203125 200.660156 Z M 239.027344 196.605469 C 239.027344 196.605469 237.722656 195.023438 236.691406 194.199219 C 236.691406 194.199219 234.761719 193.339844 234.082031 197.636719 C 233.394531 201.964844 235.796875 204.023438 236.828125 203.613281 C 236.828125 203.613281 238.476562 202.101562 239.164062 201.003906 C 239.851562 199.902344 239.371094 197.496094 239.027344 196.605469 "/><path style=" stroke:none;fill-rule:nonzero;fill:#ff3131;fill-opacity:1;" d="M 176.3125 214 C 175.800781 214 175.386719 212.839844 175.386719 211.414062 C 175.386719 209.988281 175.800781 208.828125 176.3125 208.828125 C 176.824219 208.828125 177.242188 209.988281 177.242188 211.414062 C 177.242188 212.839844 176.824219 214 176.3125 214 Z M 177.324219 208.648438 C 177.324219 208.648438 175.722656 206.5625 174.457031 205.472656 C 174.457031 205.472656 172.089844 204.335938 171.253906 210.007812 C 170.410156 215.71875 173.359375 218.441406 174.625 217.898438 C 174.625 217.898438 176.652344 215.902344 177.496094 214.449219 C 178.335938 213 177.75 209.824219 177.324219 208.648438 "/><path style=" stroke:none;fill-rule:nonzero;fill:#ff3131;fill-opacity:1;" d="M 250.234375 198.945312 C 249.875 198.945312 249.585938 198.191406 249.585938 197.257812 C 249.585938 196.324219 249.875 195.570312 250.234375 195.570312 C 250.597656 195.570312 250.886719 196.324219 250.886719 197.257812 C 250.886719 198.191406 250.597656 198.945312 250.234375 198.945312 Z M 250.945312 195.449219 C 250.945312 195.449219 249.820312 194.089844 248.929688 193.375 C 248.929688 193.375 247.269531 192.632812 246.679688 196.335938 C 246.085938 200.070312 248.164062 201.847656 249.050781 201.492188 C 249.050781 201.492188 250.472656 200.191406 251.066406 199.242188 C 251.65625 198.292969 251.242188 196.21875 250.945312 195.449219 "/><path style=" stroke:none;fill-rule:nonzero;fill:#ff3131;fill-opacity:1;" d="M 88.121094 226.214844 C 88.121094 226.214844 89.152344 231.265625 94.820312 231.78125 C 100.488281 232.296875 105.433594 231.058594 105.433594 231.058594 C 105.433594 231.058594 109.554688 227.761719 110.070312 225.1875 L 88.121094 226.214844 "/><path style=" stroke:none;fill-rule:nonzero;fill:#ff3131;fill-opacity:1;" d="M 173.074219 225.285156 C 169.890625 225.285156 167.304688 219.457031 167.304688 212.269531 C 167.304688 205.078125 169.890625 199.253906 173.074219 199.253906 C 176.261719 199.253906 178.84375 205.078125 178.84375 212.269531 C 178.84375 219.457031 176.261719 225.285156 173.074219 225.285156 Z M 172.695312 195.648438 C 168.070312 195.648438 164.164062 203.277344 164.164062 212.300781 C 164.164062 221.332031 168.070312 228.957031 172.695312 228.957031 C 177.320312 228.957031 181.226562 221.332031 181.226562 212.300781 C 181.226562 203.277344 177.320312 195.648438 172.695312 195.648438 "/><g clip-rule="nonzero" clip-path="url(#51d4e8c698)"><path style=" stroke:none;fill-rule:nonzero;fill:#ff3131;fill-opacity:1;" d="M 248.027344 208.011719 C 245.109375 208.011719 242.742188 203.335938 242.742188 197.566406 C 242.742188 191.800781 245.109375 187.125 248.027344 187.125 C 250.949219 187.125 253.316406 191.800781 253.316406 197.566406 C 253.316406 203.335938 250.949219 208.011719 248.027344 208.011719 Z M 235.644531 211.171875 C 232.257812 211.171875 229.511719 205.75 229.511719 199.0625 C 229.511719 192.375 232.257812 186.953125 235.644531 186.953125 C 239.027344 186.953125 241.773438 192.375 241.773438 199.0625 C 241.773438 205.75 239.027344 211.171875 235.644531 211.171875 Z M 221.507812 208.285156 L 204.539062 212.40625 C 204.539062 212.40625 208.933594 211.03125 209.761719 207.117188 C 210.585938 203.199219 208.042969 197.566406 203.300781 198.046875 L 218.828125 195.78125 C 218.828125 195.78125 221.851562 195.988281 223.636719 199.078125 C 225.421875 202.167969 224.050781 207.050781 221.507812 208.285156 Z M 202.617188 212.511719 L 185.167969 215.917969 L 185.027344 200.660156 L 202.617188 198.324219 Z M 202.617188 218.796875 L 185.234375 223.125 L 185.195312 219.007812 L 202.617188 215.175781 Z M 172.695312 231.429688 C 166.523438 231.429688 161.691406 223.027344 161.691406 212.300781 C 161.691406 201.578125 166.523438 193.175781 172.695312 193.175781 C 178.867188 193.175781 183.699219 201.578125 183.699219 212.300781 C 183.699219 223.027344 178.867188 231.429688 172.695312 231.429688 Z M 247.546875 185.613281 C 243.425781 185.199219 232.980469 185.75 232.980469 185.75 C 232.980469 185.75 228.035156 186.023438 226.796875 199.765625 L 225.5625 199.902344 C 225.5625 199.902344 224.460938 194.132812 217.589844 192.894531 L 181.59375 197.15625 C 181.59375 197.15625 178.984375 189.320312 172.113281 189.734375 C 165.238281 190.144531 160.433594 198.527344 158.921875 203.476562 L 158.921875 225.460938 L 154.796875 226.011719 C 154.796875 226.011719 154.9375 231.367188 162.082031 232.605469 C 169.226562 233.84375 175.546875 232.605469 175.546875 232.605469 C 175.546875 232.605469 179.394531 231.917969 182.554688 225.871094 L 206.1875 219.414062 L 206.1875 214.882812 L 219.652344 211.308594 C 219.652344 211.308594 219.789062 212.542969 221.714844 212.820312 C 223.636719 213.09375 233.804688 212.820312 233.804688 212.820312 L 249.539062 208.902344 C 249.539062 208.902344 253.480469 208 254.277344 200.449219 C 255.242188 191.382812 251.667969 186.023438 247.546875 185.613281 "/></g><path style=" stroke:none;fill-rule:nonzero;fill:#ff3131;fill-opacity:1;" d="M 184.171875 215.601562 L 185.332031 216.769531 L 203.472656 198.703125 L 202.308594 197.535156 L 184.171875 215.601562 "/><path style=" stroke:none;fill-rule:nonzero;fill:#ff3131;fill-opacity:1;" d="M 184.296875 201.140625 L 202.570312 213.300781 L 203.484375 211.925781 L 185.210938 199.765625 L 184.296875 201.140625 "/><path style=" stroke:none;fill-rule:nonzero;fill:#ff3131;fill-opacity:1;" d="M 243.667969 137.355469 C 246.570312 139.5 248.179688 142.539062 248.179688 142.539062 C 273.164062 140.972656 297.289062 149.042969 297.289062 149.042969 C 271.742188 139.230469 243.667969 137.355469 243.667969 137.355469 "/><path style=" stroke:none;fill-rule:nonzero;fill:#ff3131;fill-opacity:1;" d="M 240.105469 146.566406 C 241.523438 147.246094 243.746094 149.445312 243.746094 149.445312 C 263.949219 143.832031 287.511719 148.851562 287.511719 148.851562 C 259.003906 141.65625 240.105469 146.566406 240.105469 146.566406 "/><path style=" stroke:none;fill-rule:nonzero;fill:#ff3131;fill-opacity:1;" d="M 242.28125 159.28125 C 255.183594 147.71875 278.683594 149.175781 278.683594 149.175781 C 251.207031 146.257812 236.578125 156.175781 236.578125 156.175781 C 241.007812 157.597656 242.28125 159.28125 242.28125 159.28125 "/><path style=" stroke:none;fill-rule:nonzero;fill:#ff3131;fill-opacity:1;" d="M 297.980469 198.148438 C 296.011719 198.214844 294.308594 195.246094 294.183594 191.515625 C 294.058594 187.785156 295.554688 184.707031 297.527344 184.640625 C 299.5 184.574219 301.203125 187.542969 301.328125 191.273438 C 301.457031 195.003906 299.957031 198.082031 297.980469 198.148438 Z M 288.636719 199.734375 C 286.5625 199.75 284.859375 196.589844 284.824219 192.671875 C 284.792969 188.75 286.445312 185.558594 288.519531 185.542969 C 290.59375 185.527344 292.296875 188.691406 292.332031 192.609375 C 292.363281 196.527344 290.710938 199.71875 288.636719 199.734375 Z M 298.640625 183.433594 L 279.011719 184.0625 L 279.027344 196.546875 L 253.496094 201.359375 L 251.960938 205.140625 L 272.214844 200.457031 C 272.214844 200.457031 274.921875 203.683594 279.71875 201.105469 C 279.71875 201.105469 287.957031 203.179688 292.261719 199.046875 C 292.261719 199.046875 298.277344 201.351562 301.734375 196.796875 C 305.1875 192.246094 302.152344 183.460938 298.640625 183.433594 "/><path style=" stroke:none;fill-rule:nonzero;fill:#ff3131;fill-opacity:1;" d="M 229.730469 113.195312 L 305.570312 142.417969 L 228.542969 116.320312 Z M 229.730469 113.195312 "/><g clip-rule="nonzero" clip-path="url(#f02bf87fe2)"><path style=" stroke:none;fill-rule:nonzero;fill:#ff3131;fill-opacity:1;" d="M 228.542969 184.578125 L 306.390625 183.90625 L 305.722656 150.894531 L 304.382812 182.34375 L 228.09375 181.007812 L 228.542969 184.578125 "/></g><path style=" stroke:none;fill-rule:nonzero;fill:#ff3131;fill-opacity:1;" d="M 248.617188 183.574219 C 248.617188 183.574219 257.875 186.472656 255.421875 202.085938 L 257.429688 201.527344 L 257.429688 182.34375 L 248.617188 183.574219 "/><path style=" stroke:none;fill-rule:nonzero;fill:#ff3131;fill-opacity:1;" d="M 200.511719 116.796875 L 200.511719 118.277344 L 227.054688 116.246094 L 227.054688 184.652344 L 229.730469 184.351562 L 229.730469 113.195312 L 200.511719 116.796875 "/><path style=" stroke:none;fill-rule:nonzero;fill:#ff3131;fill-opacity:1;" d="M 168.761719 120.707031 L 197.910156 118.476562 L 197.910156 117.117188 Z M 168.761719 120.707031 "/><path style=" stroke:none;fill-rule:nonzero;fill:#ff3131;fill-opacity:1;" d="M 228.839844 176.917969 L 299.03125 179.296875 L 228.542969 174.761719 Z M 228.839844 176.917969 "/><path style=" stroke:none;fill-rule:nonzero;fill:#ff3131;fill-opacity:1;" d="M 228.542969 171.269531 L 280.625 174.425781 L 228.207031 169.296875 Z M 228.542969 171.269531 "/><path style=" stroke:none;fill-rule:nonzero;fill:#ff3131;fill-opacity:1;" d="M 228.652344 166.0625 L 262.445312 169.40625 L 228.320312 164.5 Z M 228.652344 166.0625 "/><g clip-rule="nonzero" clip-path="url(#262bd78fd6)"><path style=" stroke:none;fill-rule:nonzero;fill:#ffffff;fill-opacity:1;" d="M 135.476562 255.300781 C 134.957031 255.300781 134.457031 255.402344 133.976562 255.601562 C 133.496094 255.800781 133.070312 256.082031 132.703125 256.449219 C 132.335938 256.816406 132.054688 257.242188 131.855469 257.722656 C 131.65625 258.203125 131.554688 258.703125 131.554688 259.222656 C 131.554688 259.742188 131.65625 260.242188 131.855469 260.722656 C 132.054688 261.203125 132.335938 261.625 132.703125 261.992188 C 133.070312 262.359375 133.496094 262.644531 133.976562 262.84375 C 134.457031 263.042969 134.957031 263.140625 135.476562 263.140625 C 135.996094 263.140625 136.496094 263.042969 136.976562 262.84375 C 137.457031 262.644531 137.878906 262.359375 138.246094 261.992188 C 138.613281 261.625 138.898438 261.203125 139.097656 260.722656 C 139.296875 260.242188 139.394531 259.742188 139.394531 259.222656 C 139.394531 258.703125 139.296875 258.203125 139.097656 257.722656 C 138.898438 257.242188 138.613281 256.816406 138.246094 256.449219 C 137.878906 256.082031 137.457031 255.800781 136.976562 255.601562 C 136.496094 255.402344 135.996094 255.300781 135.476562 255.300781 Z M 135.476562 261.214844 C 135.210938 261.214844 134.957031 261.164062 134.710938 261.0625 C 134.46875 260.960938 134.253906 260.816406 134.066406 260.632812 C 133.878906 260.445312 133.734375 260.230469 133.632812 259.984375 C 133.53125 259.742188 133.480469 259.488281 133.480469 259.222656 C 133.480469 258.957031 133.53125 258.703125 133.632812 258.460938 C 133.734375 258.214844 133.878906 258 134.066406 257.8125 C 134.253906 257.625 134.46875 257.480469 134.710938 257.382812 C 134.957031 257.28125 135.210938 257.230469 135.476562 257.230469 C 135.738281 257.230469 135.992188 257.28125 136.238281 257.378906 C 136.480469 257.480469 136.695312 257.625 136.882812 257.8125 C 137.070312 258 137.214844 258.214844 137.316406 258.460938 C 137.417969 258.703125 137.46875 258.957031 137.46875 259.222656 C 137.46875 259.484375 137.417969 259.738281 137.316406 259.984375 C 137.214844 260.226562 137.070312 260.445312 136.882812 260.628906 C 136.695312 260.816406 136.480469 260.960938 136.238281 261.0625 C 135.992188 261.164062 135.738281 261.214844 135.476562 261.214844 Z M 135.476562 261.214844 "/></g><g clip-rule="nonzero" clip-path="url(#37246c85b7)"><path style=" stroke:none;fill-rule:nonzero;fill:#ffffff;fill-opacity:1;" d="M 158.964844 255.300781 C 158.445312 255.300781 157.945312 255.402344 157.464844 255.601562 C 156.984375 255.800781 156.558594 256.082031 156.191406 256.449219 C 155.824219 256.816406 155.542969 257.242188 155.34375 257.722656 C 155.144531 258.203125 155.042969 258.703125 155.042969 259.222656 C 155.042969 259.742188 155.144531 260.242188 155.34375 260.722656 C 155.542969 261.203125 155.824219 261.625 156.191406 261.992188 C 156.558594 262.359375 156.984375 262.644531 157.464844 262.84375 C 157.945312 263.042969 158.445312 263.140625 158.964844 263.140625 C 159.484375 263.140625 159.984375 263.042969 160.464844 262.84375 C 160.945312 262.644531 161.367188 262.359375 161.734375 261.992188 C 162.101562 261.625 162.386719 261.203125 162.585938 260.722656 C 162.785156 260.242188 162.882812 259.742188 162.882812 259.222656 C 162.882812 258.703125 162.785156 258.203125 162.585938 257.722656 C 162.386719 257.242188 162.101562 256.816406 161.734375 256.449219 C 161.367188 256.082031 160.945312 255.800781 160.464844 255.601562 C 159.984375 255.402344 159.484375 255.300781 158.964844 255.300781 Z M 158.964844 261.214844 C 158.699219 261.214844 158.445312 261.164062 158.199219 261.0625 C 157.957031 260.960938 157.742188 260.816406 157.554688 260.632812 C 157.367188 260.445312 157.222656 260.230469 157.121094 259.984375 C 157.019531 259.742188 156.972656 259.484375 156.972656 259.222656 C 156.972656 258.957031 157.019531 258.703125 157.121094 258.460938 C 157.222656 258.214844 157.367188 258 157.554688 257.8125 C 157.742188 257.625 157.957031 257.480469 158.199219 257.378906 C 158.445312 257.28125 158.699219 257.230469 158.964844 257.230469 C 159.226562 257.230469 159.480469 257.28125 159.726562 257.382812 C 159.96875 257.480469 160.1875 257.625 160.371094 257.8125 C 160.558594 258 160.703125 258.214844 160.804688 258.460938 C 160.90625 258.703125 160.957031 258.957031 160.957031 259.222656 C 160.957031 259.484375 160.90625 259.742188 160.804688 259.984375 C 160.703125 260.226562 160.558594 260.445312 160.371094 260.628906 C 160.183594 260.816406 159.96875 260.960938 159.726562 261.0625 C 159.480469 261.164062 159.226562 261.214844 158.964844 261.214844 Z M 158.964844 261.214844 "/></g><g clip-rule="nonzero" clip-path="url(#38a305b091)"><path style=" stroke:none;fill-rule:nonzero;fill:#ffffff;fill-opacity:1;" d="M 168.84375 255.300781 C 168.324219 255.300781 167.824219 255.402344 167.34375 255.601562 C 166.863281 255.800781 166.4375 256.082031 166.070312 256.449219 C 165.703125 256.816406 165.421875 257.242188 165.222656 257.722656 C 165.023438 258.203125 164.921875 258.703125 164.921875 259.222656 C 164.921875 259.742188 165.023438 260.242188 165.222656 260.722656 C 165.421875 261.203125 165.703125 261.625 166.070312 261.992188 C 166.4375 262.359375 166.863281 262.644531 167.34375 262.84375 C 167.824219 263.042969 168.324219 263.140625 168.84375 263.140625 C 169.363281 263.140625 169.863281 263.042969 170.34375 262.84375 C 170.824219 262.644531 171.246094 262.359375 171.613281 261.992188 C 171.980469 261.625 172.265625 261.203125 172.464844 260.722656 C 172.664062 260.242188 172.761719 259.742188 172.761719 259.222656 C 172.761719 258.703125 172.664062 258.203125 172.464844 257.722656 C 172.265625 257.242188 171.980469 256.816406 171.613281 256.449219 C 171.246094 256.082031 170.824219 255.800781 170.34375 255.601562 C 169.863281 255.402344 169.363281 255.300781 168.84375 255.300781 Z M 168.84375 261.214844 C 168.578125 261.214844 168.324219 261.164062 168.082031 261.0625 C 167.835938 260.960938 167.621094 260.816406 167.433594 260.632812 C 167.246094 260.445312 167.101562 260.230469 167 259.984375 C 166.898438 259.742188 166.851562 259.488281 166.851562 259.222656 C 166.851562 258.957031 166.898438 258.703125 167 258.460938 C 167.101562 258.214844 167.246094 258 167.433594 257.8125 C 167.621094 257.625 167.835938 257.480469 168.078125 257.382812 C 168.324219 257.28125 168.578125 257.230469 168.84375 257.230469 C 169.105469 257.230469 169.359375 257.28125 169.605469 257.378906 C 169.847656 257.480469 170.066406 257.625 170.25 257.8125 C 170.4375 258 170.582031 258.214844 170.683594 258.460938 C 170.785156 258.703125 170.835938 258.957031 170.835938 259.222656 C 170.835938 259.484375 170.785156 259.738281 170.683594 259.984375 C 170.582031 260.226562 170.4375 260.445312 170.25 260.628906 C 170.0625 260.816406 169.847656 260.960938 169.605469 261.0625 C 169.359375 261.164062 169.105469 261.214844 168.84375 261.214844 Z M 168.84375 261.214844 "/></g><g clip-rule="nonzero" clip-path="url(#53edc90817)"><path style=" stroke:none;fill-rule:nonzero;fill:#ffffff;fill-opacity:1;" d="M 229.078125 255.300781 C 228.558594 255.300781 228.058594 255.402344 227.578125 255.601562 C 227.097656 255.800781 226.671875 256.082031 226.304688 256.449219 C 225.9375 256.820312 225.65625 257.242188 225.457031 257.722656 C 225.257812 258.203125 225.15625 258.703125 225.15625 259.222656 C 225.15625 259.742188 225.257812 260.242188 225.457031 260.722656 C 225.65625 261.203125 225.9375 261.625 226.304688 261.992188 C 226.671875 262.359375 227.097656 262.644531 227.578125 262.84375 C 228.058594 263.042969 228.558594 263.140625 229.078125 263.140625 C 229.597656 263.140625 230.097656 263.042969 230.578125 262.84375 C 231.058594 262.644531 231.480469 262.359375 231.847656 261.992188 C 232.214844 261.625 232.5 261.203125 232.699219 260.722656 C 232.898438 260.242188 232.996094 259.742188 232.996094 259.222656 C 232.996094 258.703125 232.898438 258.203125 232.699219 257.722656 C 232.5 257.242188 232.214844 256.816406 231.847656 256.449219 C 231.480469 256.082031 231.058594 255.800781 230.578125 255.601562 C 230.097656 255.402344 229.597656 255.300781 229.078125 255.300781 Z M 229.078125 261.214844 C 228.8125 261.214844 228.558594 261.164062 228.3125 261.0625 C 228.070312 260.960938 227.855469 260.816406 227.667969 260.632812 C 227.480469 260.445312 227.335938 260.230469 227.234375 259.984375 C 227.132812 259.742188 227.082031 259.488281 227.082031 259.222656 C 227.082031 258.957031 227.132812 258.703125 227.234375 258.460938 C 227.335938 258.214844 227.480469 258 227.667969 257.8125 C 227.855469 257.625 228.070312 257.480469 228.3125 257.382812 C 228.558594 257.28125 228.8125 257.230469 229.074219 257.230469 C 229.339844 257.230469 229.59375 257.28125 229.839844 257.378906 C 230.082031 257.480469 230.296875 257.625 230.484375 257.8125 C 230.671875 258 230.816406 258.214844 230.917969 258.460938 C 231.019531 258.703125 231.070312 258.957031 231.070312 259.222656 C 231.070312 259.484375 231.019531 259.738281 230.917969 259.984375 C 230.816406 260.226562 230.671875 260.445312 230.484375 260.628906 C 230.296875 260.816406 230.082031 260.960938 229.839844 261.0625 C 229.59375 261.164062 229.339844 261.214844 229.078125 261.214844 Z M 229.078125 261.214844 "/></g><g clip-rule="nonzero" clip-path="url(#f9cec7e081)"><path style=" stroke:none;fill-rule:nonzero;fill:#ffffff;fill-opacity:1;" d="M 240.59375 255.300781 C 240.074219 255.300781 239.574219 255.402344 239.09375 255.601562 C 238.617188 255.800781 238.191406 256.082031 237.824219 256.449219 C 237.457031 256.816406 237.171875 257.242188 236.972656 257.722656 C 236.777344 258.203125 236.675781 258.703125 236.675781 259.222656 C 236.675781 259.742188 236.777344 260.242188 236.972656 260.722656 C 237.171875 261.203125 237.457031 261.625 237.824219 261.992188 C 238.191406 262.359375 238.617188 262.644531 239.09375 262.84375 C 239.574219 263.042969 240.074219 263.140625 240.59375 263.140625 C 241.113281 263.140625 241.613281 263.042969 242.09375 262.84375 C 242.574219 262.644531 243 262.359375 243.367188 261.992188 C 243.734375 261.625 244.019531 261.203125 244.214844 260.722656 C 244.414062 260.242188 244.515625 259.742188 244.515625 259.222656 C 244.515625 258.703125 244.414062 258.203125 244.214844 257.722656 C 244.019531 257.242188 243.734375 256.816406 243.367188 256.449219 C 243 256.082031 242.574219 255.800781 242.09375 255.601562 C 241.613281 255.402344 241.113281 255.300781 240.59375 255.300781 Z M 240.59375 261.214844 C 240.332031 261.214844 240.078125 261.164062 239.832031 261.0625 C 239.589844 260.960938 239.375 260.816406 239.1875 260.632812 C 239 260.445312 238.855469 260.230469 238.753906 259.984375 C 238.652344 259.742188 238.601562 259.484375 238.601562 259.222656 C 238.601562 258.957031 238.652344 258.703125 238.753906 258.460938 C 238.855469 258.214844 239 258 239.1875 257.8125 C 239.375 257.625 239.589844 257.480469 239.832031 257.378906 C 240.078125 257.28125 240.332031 257.230469 240.59375 257.230469 C 240.859375 257.230469 241.113281 257.28125 241.359375 257.382812 C 241.601562 257.480469 241.816406 257.625 242.003906 257.8125 C 242.191406 258 242.335938 258.214844 242.4375 258.460938 C 242.539062 258.703125 242.589844 258.957031 242.589844 259.222656 C 242.589844 259.484375 242.539062 259.742188 242.4375 259.984375 C 242.335938 260.226562 242.191406 260.445312 242.003906 260.628906 C 241.816406 260.816406 241.601562 260.960938 241.359375 261.0625 C 241.113281 261.164062 240.859375 261.214844 240.59375 261.214844 Z M 240.59375 261.214844 "/></g><g clip-rule="nonzero" clip-path="url(#998a36dfdf)"><path style=" stroke:none;fill-rule:nonzero;fill:#ffffff;fill-opacity:1;" d="M 273.996094 239.707031 C 273.785156 239.527344 273.566406 239.667969 273.507812 240.019531 L 271.132812 249.429688 L 260.785156 252.664062 L 258.175781 252.074219 C 257.757812 251.988281 257.332031 251.941406 256.90625 251.929688 L 181.871094 251.75 C 181.679688 251.742188 181.511719 251.679688 181.359375 251.570312 C 181.203125 251.457031 181.09375 251.316406 181.027344 251.136719 L 180.042969 248.144531 C 179.980469 247.96875 179.867188 247.824219 179.714844 247.71875 C 179.5625 247.609375 179.390625 247.554688 179.203125 247.554688 L 160.253906 248.160156 L 160.253906 248.351562 L 160.246094 249.484375 C 160.246094 249.660156 160.304688 249.8125 160.429688 249.9375 C 160.554688 250.0625 160.707031 250.128906 160.882812 250.128906 L 161.375 250.132812 L 161.375 253.765625 L 152.675781 253.765625 C 152.65625 253.082031 152.53125 252.414062 152.308594 251.765625 C 151.925781 250.648438 150.742188 250.402344 149.941406 250.371094 L 149.941406 250.117188 C 149.941406 249.941406 149.878906 249.789062 149.753906 249.664062 C 149.628906 249.539062 149.476562 249.476562 149.300781 249.476562 L 145.089844 249.476562 C 145.046875 249.476562 145.003906 249.480469 144.964844 249.488281 L 144.964844 247.847656 C 144.980469 247.652344 144.925781 247.480469 144.800781 247.328125 C 144.675781 247.175781 144.515625 247.085938 144.320312 247.066406 L 143.992188 247.066406 L 143.992188 239.382812 C 144.078125 239.179688 144.421875 238.429688 145.015625 238.265625 L 144.828125 237.585938 C 143.78125 237.871094 143.324219 239.148438 143.304688 239.203125 C 143.292969 239.238281 143.285156 239.277344 143.285156 239.316406 L 143.285156 247.066406 L 142.953125 247.066406 C 142.816406 247.066406 142.691406 247.113281 142.589844 247.203125 L 142.589844 242.847656 C 142.589844 242.671875 142.527344 242.519531 142.402344 242.394531 C 142.273438 242.269531 142.125 242.207031 141.945312 242.207031 C 141.945312 242.207031 131.246094 242.152344 130.523438 242.292969 C 130.523438 242.292969 130.195312 242.335938 129.296875 243.554688 C 129.296875 243.554688 125.445312 253.765625 125.445312 254.472656 C 125.445312 255.179688 125.648438 259.445312 125.765625 259.800781 L 130.953125 259.800781 C 130.925781 259.609375 130.914062 259.417969 130.914062 259.222656 C 130.914062 258.910156 130.945312 258.605469 131.011719 258.300781 C 131.074219 257.996094 131.171875 257.703125 131.292969 257.417969 C 131.417969 257.132812 131.570312 256.863281 131.75 256.609375 C 131.929688 256.355469 132.132812 256.125 132.359375 255.910156 C 132.585938 255.699219 132.832031 255.511719 133.097656 255.351562 C 133.363281 255.1875 133.644531 255.054688 133.9375 254.953125 C 134.226562 254.847656 134.527344 254.773438 134.835938 254.730469 C 135.144531 254.6875 135.453125 254.675781 135.761719 254.695312 C 136.074219 254.714844 136.378906 254.765625 136.675781 254.847656 C 136.976562 254.929688 137.265625 255.039062 137.542969 255.179688 C 137.816406 255.324219 138.078125 255.488281 138.320312 255.683594 C 138.5625 255.878906 138.785156 256.09375 138.980469 256.335938 C 139.179688 256.574219 139.351562 256.832031 139.496094 257.105469 C 139.644531 257.378906 139.761719 257.664062 139.847656 257.964844 C 139.933594 258.261719 139.992188 258.566406 140.015625 258.875 C 140.042969 259.183594 140.035156 259.492188 139.996094 259.800781 L 154.441406 259.800781 C 154.402344 259.492188 154.398438 259.183594 154.421875 258.875 C 154.449219 258.566406 154.503906 258.261719 154.589844 257.964844 C 154.679688 257.667969 154.796875 257.378906 154.941406 257.105469 C 155.085938 256.832031 155.257812 256.574219 155.457031 256.335938 C 155.65625 256.097656 155.875 255.878906 156.117188 255.6875 C 156.359375 255.492188 156.621094 255.324219 156.898438 255.183594 C 157.175781 255.042969 157.460938 254.933594 157.761719 254.851562 C 158.0625 254.769531 158.367188 254.71875 158.675781 254.699219 C 158.984375 254.675781 159.292969 254.6875 159.601562 254.734375 C 159.910156 254.777344 160.210938 254.851562 160.5 254.953125 C 160.792969 255.058594 161.074219 255.191406 161.339844 255.355469 C 161.601562 255.515625 161.847656 255.703125 162.078125 255.914062 C 162.304688 256.125 162.507812 256.359375 162.6875 256.613281 C 162.867188 256.863281 163.019531 257.132812 163.140625 257.417969 C 163.265625 257.703125 163.363281 257.996094 163.425781 258.300781 C 163.492188 258.605469 163.523438 258.910156 163.523438 259.222656 C 163.523438 259.417969 163.511719 259.609375 163.488281 259.800781 L 164.320312 259.800781 C 164.28125 259.492188 164.273438 259.183594 164.300781 258.875 C 164.324219 258.566406 164.382812 258.261719 164.46875 257.964844 C 164.554688 257.664062 164.671875 257.378906 164.820312 257.105469 C 164.964844 256.832031 165.136719 256.574219 165.335938 256.335938 C 165.53125 256.09375 165.753906 255.878906 165.996094 255.683594 C 166.238281 255.492188 166.5 255.324219 166.773438 255.183594 C 167.050781 255.039062 167.339844 254.929688 167.640625 254.847656 C 167.9375 254.765625 168.242188 254.714844 168.554688 254.695312 C 168.863281 254.675781 169.171875 254.6875 169.480469 254.730469 C 169.789062 254.773438 170.089844 254.847656 170.378906 254.953125 C 170.671875 255.054688 170.953125 255.1875 171.21875 255.351562 C 171.484375 255.511719 171.730469 255.699219 171.957031 255.910156 C 172.183594 256.125 172.386719 256.355469 172.566406 256.609375 C 172.746094 256.863281 172.898438 257.132812 173.023438 257.417969 C 173.144531 257.703125 173.242188 257.996094 173.304688 258.300781 C 173.371094 258.605469 173.402344 258.910156 173.402344 259.222656 C 173.402344 259.417969 173.390625 259.609375 173.363281 259.800781 L 174.246094 259.800781 C 174.421875 259.800781 174.574219 259.738281 174.699219 259.613281 C 174.824219 259.488281 174.886719 259.335938 174.886719 259.160156 L 174.886719 254.664062 C 174.886719 254.3125 174.597656 253.765625 174.246094 253.765625 L 165.671875 253.765625 L 165.671875 250.164062 L 177.09375 250.242188 C 177.28125 250.25 177.445312 250.3125 177.589844 250.425781 C 177.738281 250.542969 177.835938 250.691406 177.886719 250.867188 L 178.738281 254.347656 C 178.789062 254.527344 178.886719 254.675781 179.035156 254.789062 C 179.179688 254.902344 179.347656 254.964844 179.53125 254.972656 L 179.632812 254.972656 L 179.632812 258.121094 L 179.035156 258.121094 L 179.035156 258.921875 L 181.21875 258.921875 L 181.21875 258.121094 L 180.625 258.121094 L 180.625 254.976562 L 222.527344 255 L 222.527344 256.199219 C 222.527344 256.375 222.59375 256.527344 222.71875 256.652344 C 222.84375 256.777344 222.992188 256.839844 223.171875 256.839844 L 225.183594 256.839844 C 225.285156 256.675781 225.394531 256.515625 225.519531 256.367188 C 225.640625 256.214844 225.769531 256.070312 225.910156 255.9375 C 226.050781 255.800781 226.199219 255.675781 226.355469 255.558594 C 226.511719 255.445312 226.671875 255.339844 226.84375 255.242188 C 227.011719 255.148438 227.1875 255.066406 227.367188 254.992188 C 227.546875 254.917969 227.734375 254.859375 227.921875 254.808594 C 228.109375 254.761719 228.300781 254.722656 228.492188 254.699219 C 228.683594 254.675781 228.878906 254.660156 229.074219 254.660156 C 229.265625 254.660156 229.460938 254.675781 229.652344 254.699219 C 229.847656 254.722656 230.035156 254.761719 230.222656 254.808594 C 230.414062 254.859375 230.597656 254.917969 230.777344 254.992188 C 230.957031 255.066406 231.132812 255.148438 231.300781 255.242188 C 231.472656 255.339844 231.632812 255.445312 231.789062 255.558594 C 231.945312 255.675781 232.09375 255.800781 232.234375 255.9375 C 232.375 256.070312 232.503906 256.214844 232.625 256.367188 C 232.75 256.515625 232.859375 256.675781 232.960938 256.839844 L 236.703125 256.839844 C 236.804688 256.675781 236.914062 256.515625 237.039062 256.367188 C 237.160156 256.214844 237.289062 256.070312 237.429688 255.9375 C 237.570312 255.800781 237.71875 255.675781 237.875 255.558594 C 238.03125 255.445312 238.191406 255.339844 238.363281 255.242188 C 238.53125 255.148438 238.707031 255.066406 238.886719 254.992188 C 239.066406 254.917969 239.25 254.859375 239.441406 254.808594 C 239.628906 254.761719 239.816406 254.722656 240.011719 254.699219 C 240.203125 254.671875 240.398438 254.660156 240.589844 254.660156 C 240.785156 254.660156 240.980469 254.671875 241.171875 254.699219 C 241.367188 254.722656 241.554688 254.761719 241.742188 254.808594 C 241.933594 254.859375 242.117188 254.917969 242.296875 254.992188 C 242.476562 255.066406 242.652344 255.148438 242.820312 255.242188 C 242.992188 255.339844 243.152344 255.445312 243.308594 255.558594 C 243.464844 255.675781 243.613281 255.800781 243.753906 255.9375 C 243.894531 256.070312 244.023438 256.214844 244.144531 256.367188 C 244.269531 256.515625 244.378906 256.675781 244.480469 256.839844 L 248.222656 256.839844 C 248.324219 256.675781 248.433594 256.515625 248.558594 256.367188 C 248.679688 256.214844 248.808594 256.070312 248.949219 255.9375 C 249.089844 255.800781 249.238281 255.675781 249.394531 255.558594 C 249.550781 255.445312 249.710938 255.339844 249.882812 255.242188 C 250.050781 255.148438 250.226562 255.066406 250.40625 254.992188 C 250.585938 254.917969 250.769531 254.859375 250.960938 254.808594 C 251.148438 254.761719 251.335938 254.722656 251.53125 254.699219 C 251.722656 254.675781 251.917969 254.660156 252.109375 254.660156 C 252.304688 254.660156 252.5 254.675781 252.691406 254.699219 C 252.882812 254.722656 253.074219 254.761719 253.261719 254.808594 C 253.449219 254.859375 253.636719 254.917969 253.816406 254.992188 C 253.996094 255.066406 254.171875 255.148438 254.339844 255.242188 C 254.507812 255.339844 254.671875 255.445312 254.828125 255.558594 C 254.984375 255.675781 255.132812 255.800781 255.273438 255.9375 C 255.414062 256.070312 255.542969 256.214844 255.664062 256.367188 C 255.785156 256.515625 255.898438 256.675781 256 256.839844 L 256.5625 256.839844 C 256.738281 256.839844 256.890625 256.777344 257.015625 256.652344 C 257.140625 256.527344 257.203125 256.375 257.203125 256.199219 L 257.203125 255.019531 L 258.03125 255.019531 C 258.460938 255.027344 258.878906 255.082031 259.296875 255.183594 L 269.078125 257.757812 C 269.257812 257.796875 269.4375 257.78125 269.609375 257.710938 C 269.78125 257.636719 269.917969 257.523438 270.019531 257.367188 L 270.414062 256.6875 C 270.644531 256.339844 270.964844 256.15625 271.378906 256.136719 C 271.5625 256.132812 271.71875 256.070312 271.851562 255.949219 C 271.984375 255.828125 272.0625 255.679688 272.085938 255.5 L 274.304688 240.667969 C 274.34375 240.300781 274.242188 239.980469 273.996094 239.707031 Z M 137.707031 247.023438 C 137.707031 247.203125 137.644531 247.355469 137.519531 247.484375 C 137.398438 247.613281 137.246094 247.683594 137.066406 247.695312 L 131.222656 247.957031 C 130.867188 247.972656 130.292969 247.984375 129.9375 247.984375 L 129.683594 247.984375 C 129.519531 248.003906 129.390625 247.945312 129.296875 247.8125 C 129.203125 247.675781 129.195312 247.535156 129.269531 247.386719 L 130.347656 244.605469 C 130.519531 244.226562 130.808594 244.019531 131.222656 243.980469 L 137.066406 243.769531 C 137.242188 243.761719 137.394531 243.820312 137.519531 243.941406 C 137.648438 244.066406 137.710938 244.214844 137.710938 244.390625 Z M 149.941406 253.765625 L 149.941406 250.953125 C 150.589844 250.980469 151.496094 251.167969 151.761719 251.953125 C 151.964844 252.542969 152.078125 253.144531 152.097656 253.769531 Z M 269.960938 254.078125 C 269.933594 254.25 269.847656 254.386719 269.703125 254.484375 C 269.558594 254.582031 269.402344 254.609375 269.230469 254.570312 L 262.40625 253.027344 L 270.894531 250.378906 Z M 269.960938 254.078125 "/></g><g clip-rule="nonzero" clip-path="url(#0f19b96435)"><path style=" stroke:none;fill-rule:nonzero;fill:#ffffff;fill-opacity:1;" d="M 252.117188 255.300781 C 251.597656 255.300781 251.097656 255.402344 250.617188 255.601562 C 250.136719 255.800781 249.714844 256.082031 249.347656 256.449219 C 248.976562 256.816406 248.695312 257.242188 248.496094 257.722656 C 248.296875 258.203125 248.199219 258.703125 248.199219 259.222656 C 248.199219 259.742188 248.296875 260.242188 248.496094 260.722656 C 248.695312 261.203125 248.976562 261.625 249.34375 261.992188 C 249.714844 262.359375 250.136719 262.644531 250.617188 262.84375 C 251.097656 263.042969 251.597656 263.140625 252.117188 263.140625 C 252.636719 263.140625 253.136719 263.042969 253.617188 262.84375 C 254.097656 262.644531 254.519531 262.359375 254.886719 261.992188 C 255.257812 261.625 255.539062 261.203125 255.738281 260.722656 C 255.9375 260.242188 256.035156 259.742188 256.035156 259.222656 C 256.035156 258.703125 255.9375 258.203125 255.738281 257.722656 C 255.539062 257.242188 255.257812 256.816406 254.890625 256.449219 C 254.519531 256.082031 254.097656 255.800781 253.617188 255.601562 C 253.136719 255.402344 252.636719 255.300781 252.117188 255.300781 Z M 252.117188 261.214844 C 251.851562 261.214844 251.597656 261.164062 251.355469 261.0625 C 251.109375 260.960938 250.894531 260.816406 250.707031 260.632812 C 250.519531 260.445312 250.378906 260.230469 250.277344 259.984375 C 250.175781 259.742188 250.125 259.488281 250.125 259.222656 C 250.125 258.957031 250.175781 258.703125 250.277344 258.460938 C 250.378906 258.214844 250.519531 258 250.707031 257.8125 C 250.894531 257.625 251.109375 257.480469 251.355469 257.382812 C 251.597656 257.28125 251.851562 257.230469 252.117188 257.230469 C 252.382812 257.230469 252.636719 257.28125 252.878906 257.378906 C 253.125 257.480469 253.339844 257.625 253.527344 257.8125 C 253.714844 258 253.855469 258.214844 253.957031 258.460938 C 254.058594 258.703125 254.109375 258.957031 254.109375 259.222656 C 254.109375 259.484375 254.058594 259.738281 253.957031 259.984375 C 253.855469 260.226562 253.710938 260.445312 253.527344 260.628906 C 253.339844 260.816406 253.125 260.960938 252.878906 261.0625 C 252.636719 261.164062 252.382812 261.214844 252.117188 261.214844 Z M 252.117188 261.214844 "/></g></g></svg>