<svg xmlns="http://www.w3.org/2000/svg" xmlns:xlink="http://www.w3.org/1999/xlink" width="500" zoomAndPan="magnify" viewBox="0 0 375 374.999991" height="500" preserveAspectRatio="xMidYMid meet" version="1.2"><defs><clipPath id="06c00ef7e5"><path d="M 89 74.746094 L 242 74.746094 L 242 115 L 89 115 Z M 89 74.746094 "/></clipPath><clipPath id="00aa1cdb2f"><path d="M 230 154 L 322.984375 154 L 322.984375 178 L 230 178 Z M 230 154 "/></clipPath><clipPath id="4d7c6a1f80"><path d="M 208 174 L 322.984375 174 L 322.984375 234 L 208 234 Z M 208 174 "/></clipPath><clipPath id="2f124aa8ad"><path d="M 52.234375 105 L 293 105 L 293 203 L 52.234375 203 Z M 52.234375 105 "/></clipPath><clipPath id="bc036e6814"><path d="M 217 189 L 308 189 L 308 278.746094 L 217 278.746094 Z M 217 189 "/></clipPath><clipPath id="3333bd9037"><path d="M 94 189 L 185 189 L 185 278.746094 L 94 278.746094 Z M 94 189 "/></clipPath><clipPath id="1c7ba172c0"><path d="M 12.519531 293.449219 L 82.269531 293.449219 L 82.269531 363.199219 L 12.519531 363.199219 Z M 12.519531 293.449219 "/></clipPath></defs><g id="9f91e49360"><rect x="0" width="375" y="0" height="374.999991" style="fill:#ffffff;fill-opacity:1;stroke:none;"/><rect x="0" width="375" y="0" height="374.999991" style="fill:#ffffff;fill-opacity:1;stroke:none;"/><g clip-rule="nonzero" clip-path="url(#06c00ef7e5)"><path style=" stroke:none;fill-rule:nonzero;fill:#312d2d;fill-opacity:1;" d="M 89.449219 114.296875 L 91.660156 108.5625 L 97.035156 107.164062 L 99.027344 102.976562 L 104.625 101.726562 L 106.171875 103.339844 L 109.632812 101.136719 L 108.96875 99.226562 L 110.960938 96.136719 L 114.789062 96.726562 L 115.675781 94.300781 C 115.675781 94.300781 113.167969 93.5625 113.167969 93.34375 C 113.167969 93.125 115.085938 89.152344 115.085938 89.152344 L 119.652344 88.417969 L 120.535156 90.257812 L 125.914062 89.449219 C 125.914062 89.449219 126.132812 87.539062 126.355469 87.539062 C 126.578125 87.539062 132.835938 87.539062 132.835938 87.539062 L 132.835938 89.007812 L 136.519531 89.007812 L 137.332031 86.875 L 140.203125 86.875 L 142.265625 83.859375 L 141.457031 81.726562 L 144.253906 78.054688 C 144.253906 78.054688 147.128906 77.980469 147.535156 78.054688 C 147.9375 78.125 148.382812 79.007812 148.382812 79.007812 L 152.433594 78.640625 L 152.0625 76.65625 L 156.707031 74.746094 L 157.738281 75.921875 L 157.738281 77.171875 L 160.609375 78.789062 L 161.863281 77.761719 L 165.175781 79.375 L 165.65625 80.699219 L 169.671875 81.65625 L 170.332031 79.230469 L 176.226562 77.171875 L 177.40625 78.421875 L 179.46875 77.171875 L 179.46875 76.066406 L 183.296875 75.554688 L 185.066406 77.539062 L 184.625 79.523438 L 186.171875 81.433594 L 186.464844 83.050781 L 189.265625 84.375 L 189.925781 86.140625 L 193.90625 85.480469 L 193.90625 83.566406 L 198.105469 83.273438 L 198.941406 85.84375 L 203.058594 87.167969 L 204.074219 86.289062 L 207.976562 87.242188 L 207.976562 91.210938 L 210.703125 92.019531 L 211.292969 93.710938 L 214.164062 94.519531 L 214.164062 96.945312 L 212.507812 97.167969 L 212.984375 99.375 L 216.300781 100.328125 L 216.964844 99.226562 L 222.636719 98.710938 L 222.636719 100.328125 L 225.730469 99.59375 L 225.730469 98.488281 L 229.191406 98.34375 L 230.296875 100.625 L 230.296875 102.09375 L 233.09375 105.253906 L 235.378906 105.035156 L 236.703125 107.238281 L 239.726562 107.238281 L 241.640625 112.238281 L 89.449219 114.296875 "/></g><path style=" stroke:none;fill-rule:nonzero;fill:#f89e19;fill-opacity:1;" d="M 308.933594 177.46875 L 307.652344 154.964844 L 290.664062 154.472656 L 282.0625 135.246094 L 239.070312 134.488281 L 224.402344 171.636719 L 308.933594 177.46875 "/><path style=" stroke:none;fill-rule:nonzero;fill:#e5751a;fill-opacity:1;" d="M 232.617188 148.335938 L 266.8125 149.511719 L 266.8125 160.335938 L 304.734375 161.421875 L 305.839844 182.996094 L 219.726562 180.855469 L 232.617188 148.335938 "/><g clip-rule="nonzero" clip-path="url(#00aa1cdb2f)"><path style=" stroke:none;fill-rule:nonzero;fill:#e13342;fill-opacity:1;" d="M 230.238281 154.964844 L 230.238281 157.195312 L 234.753906 157.246094 L 234.753906 177.46875 L 236.816406 177.46875 L 236.816406 157.265625 L 246.097656 157.367188 L 246.097656 177.46875 L 248.160156 177.46875 L 248.160156 157.390625 L 260.3125 157.523438 L 260.3125 177.46875 L 262.375 177.46875 L 262.375 157.546875 L 275.550781 157.695312 L 275.550781 177.46875 L 277.613281 177.46875 L 277.613281 157.714844 L 290.441406 157.855469 L 290.441406 177.46875 L 292.503906 177.46875 L 292.503906 157.878906 L 304.734375 158.011719 L 304.734375 177.46875 L 306.796875 177.46875 L 306.796875 158.035156 L 320.460938 158.1875 L 320.683594 176.125 L 322.929688 176.125 L 322.929688 155.757812 L 230.238281 154.964844 "/></g><g clip-rule="nonzero" clip-path="url(#4d7c6a1f80)"><path style=" stroke:none;fill-rule:nonzero;fill:#f89e19;fill-opacity:1;" d="M 223.628906 174.65625 L 322.929688 176.125 L 322.929688 233.347656 L 302.007812 233.851562 L 239.066406 220.96875 L 208.960938 197.957031 L 223.628906 174.65625 "/></g><path style=" stroke:none;fill-rule:nonzero;fill:#db581d;fill-opacity:1;" d="M 234.277344 186.746094 L 222.339844 202.296875 L 135.710938 177.46875 L 135.710938 239.53125 L 306.136719 239.53125 L 310.851562 213.101562 L 292.066406 186.746094 L 234.277344 186.746094 "/><path style=" stroke:none;fill-rule:nonzero;fill:#e5751a;fill-opacity:1;" d="M 60.460938 155.097656 L 208.972656 208.910156 L 246.316406 123.117188 L 80.792969 123.117188 L 60.460938 155.097656 "/><g clip-rule="nonzero" clip-path="url(#2f124aa8ad)"><path style=" stroke:none;fill-rule:nonzero;fill:#fbbe1b;fill-opacity:1;" d="M 206.5625 143.652344 L 213.34375 125.324219 L 239.070312 125.324219 Z M 273.28125 105.914062 L 273.28125 110.988281 L 79.246094 112.753906 L 52.285156 156.640625 L 61.347656 160.832031 L 83.445312 125.324219 L 116.121094 125.324219 L 95.15625 169.210938 L 105.433594 172.960938 L 127.160156 125.324219 L 147.90625 125.324219 L 124.328125 179.945312 L 133.167969 183.179688 L 158.917969 125.324219 L 177.039062 125.324219 L 150.847656 189.0625 L 160.132812 192.589844 L 187.175781 125.324219 L 203.425781 125.324219 L 176.777344 198.914062 L 184.882812 202.296875 L 189.324219 190.28125 L 214.421875 200.089844 L 218.03125 190.386719 L 192.605469 181.40625 L 196.207031 171.660156 L 222.671875 182.007812 L 226.28125 172.300781 L 199.472656 162.832031 L 200.921875 158.910156 L 242.339844 136.277344 L 245.652344 125.324219 L 246.316406 125.324219 L 292.066406 121.132812 L 292.066406 105.914062 L 273.28125 105.914062 "/></g><path style=" stroke:none;fill-rule:nonzero;fill:#f89e19;fill-opacity:1;" d="M 84.109375 129.183594 L 69.632812 154.105469 L 94.164062 162.816406 L 111.289062 129.183594 L 84.109375 129.183594 "/><path style=" stroke:none;fill-rule:nonzero;fill:#f89e19;fill-opacity:1;" d="M 129.191406 128.632812 L 109.414062 168.222656 L 124.660156 174.175781 L 143.113281 129.734375 L 129.191406 128.632812 "/><path style=" stroke:none;fill-rule:nonzero;fill:#f89e19;fill-opacity:1;" d="M 159.578125 129.183594 L 137.035156 178.585938 L 150.847656 182.996094 L 173.28125 129.183594 L 159.578125 129.183594 "/><path style=" stroke:none;fill-rule:nonzero;fill:#f89e19;fill-opacity:1;" d="M 187.863281 129.183594 L 164.328125 186.96875 L 176.59375 191.488281 L 199.246094 129.183594 L 187.863281 129.183594 "/><path style=" stroke:none;fill-rule:nonzero;fill:#f89e19;fill-opacity:1;" d="M 214.828125 127.035156 L 210.683594 138.941406 L 231.457031 127.035156 Z M 214.828125 127.035156 "/><path style=" stroke:none;fill-rule:nonzero;fill:#f89e19;fill-opacity:1;" d="M 236.816406 141.570312 L 203.445312 160.832031 L 224.144531 167.375 Z M 236.816406 141.570312 "/><path style=" stroke:none;fill-rule:nonzero;fill:#f89e19;fill-opacity:1;" d="M 197.863281 173.460938 L 218.472656 181.671875 L 215.65625 188.457031 L 195.433594 180.957031 L 197.863281 173.460938 "/><path style=" stroke:none;fill-rule:nonzero;fill:#f89e19;fill-opacity:1;" d="M 190.683594 192.316406 L 210.570312 200.035156 L 207.867188 206.761719 L 188.140625 199.539062 L 190.683594 192.316406 "/><path style=" stroke:none;fill-rule:nonzero;fill:#fbbe1b;fill-opacity:1;" d="M 232.230469 174.78125 L 217.917969 202.296875 L 222.339844 202.296875 L 234.273438 186.746094 L 292.066406 186.746094 L 310.851562 213.101562 L 318.253906 207.585938 L 301.015625 175.277344 L 232.230469 174.78125 "/><g clip-rule="nonzero" clip-path="url(#bc036e6814)"><path style=" stroke:none;fill-rule:nonzero;fill:#2c2a2a;fill-opacity:1;" d="M 307.652344 233.953125 C 307.652344 258.691406 287.554688 278.75 262.761719 278.75 C 237.972656 278.75 217.875 258.691406 217.875 233.953125 C 217.875 209.210938 237.972656 189.15625 262.761719 189.15625 C 287.554688 189.15625 307.652344 209.210938 307.652344 233.953125 "/></g><path style=" stroke:none;fill-rule:nonzero;fill:#3a3a3b;fill-opacity:1;" d="M 303.621094 233.347656 C 303.621094 256.078125 285.15625 274.507812 262.378906 274.507812 C 239.601562 274.507812 221.132812 256.078125 221.132812 233.347656 C 221.132812 210.617188 239.601562 192.1875 262.378906 192.1875 C 285.15625 192.1875 303.621094 210.617188 303.621094 233.347656 "/><path style=" stroke:none;fill-rule:nonzero;fill:#2c2a2a;fill-opacity:1;" d="M 285.507812 234.652344 C 285.507812 247.683594 275.152344 258.25 262.378906 258.25 C 249.601562 258.25 239.246094 247.683594 239.246094 234.652344 C 239.246094 221.617188 249.601562 211.050781 262.378906 211.050781 C 275.152344 211.050781 285.507812 221.617188 285.507812 234.652344 "/><path style=" stroke:none;fill-rule:nonzero;fill:#e5751a;fill-opacity:1;" d="M 282.0625 234.394531 C 282.0625 245.457031 273.320312 254.425781 262.539062 254.425781 C 251.757812 254.425781 243.019531 245.457031 243.019531 234.394531 C 243.019531 223.332031 251.757812 214.359375 262.539062 214.359375 C 273.320312 214.359375 282.0625 223.332031 282.0625 234.394531 "/><path style=" stroke:none;fill-rule:nonzero;fill:#f89e19;fill-opacity:1;" d="M 271.855469 234.394531 C 271.855469 239.734375 267.6875 244.058594 262.539062 244.058594 C 257.390625 244.058594 253.21875 239.734375 253.21875 234.394531 C 253.21875 229.054688 257.390625 224.726562 262.539062 224.726562 C 267.6875 224.726562 271.855469 229.054688 271.855469 234.394531 "/><path style=" stroke:none;fill-rule:nonzero;fill:#e5751a;fill-opacity:1;" d="M 266.8125 234.394531 C 266.8125 236.523438 265.078125 238.253906 262.945312 238.253906 C 260.808594 238.253906 259.078125 236.523438 259.078125 234.394531 C 259.078125 232.261719 260.808594 230.535156 262.945312 230.535156 C 265.078125 230.535156 266.8125 232.261719 266.8125 234.394531 "/><path style=" stroke:none;fill-rule:nonzero;fill:#f89e19;fill-opacity:1;" d="M 255.824219 222.699219 C 255.824219 224.046875 254.730469 225.140625 253.382812 225.140625 C 252.03125 225.140625 250.9375 224.046875 250.9375 222.699219 C 250.9375 221.351562 252.03125 220.261719 253.382812 220.261719 C 254.730469 220.261719 255.824219 221.351562 255.824219 222.699219 "/><path style=" stroke:none;fill-rule:nonzero;fill:#f89e19;fill-opacity:1;" d="M 250.621094 231.414062 C 250.621094 232.757812 249.523438 233.851562 248.175781 233.851562 C 246.824219 233.851562 245.726562 232.757812 245.726562 231.414062 C 245.726562 230.0625 246.824219 228.972656 248.175781 228.972656 C 249.523438 228.972656 250.621094 230.0625 250.621094 231.414062 "/><path style=" stroke:none;fill-rule:nonzero;fill:#f89e19;fill-opacity:1;" d="M 252.347656 242.550781 C 252.347656 243.894531 251.25 244.988281 249.902344 244.988281 C 248.550781 244.988281 247.453125 243.894531 247.453125 242.550781 C 247.453125 241.199219 248.550781 240.109375 249.902344 240.109375 C 251.25 240.109375 252.347656 241.199219 252.347656 242.550781 "/><path style=" stroke:none;fill-rule:nonzero;fill:#f89e19;fill-opacity:1;" d="M 261.847656 248.945312 C 261.847656 250.292969 260.753906 251.386719 259.402344 251.386719 C 258.050781 251.386719 256.957031 250.292969 256.957031 248.945312 C 256.957031 247.597656 258.050781 246.503906 259.402344 246.503906 C 260.753906 246.503906 261.847656 247.597656 261.847656 248.945312 "/><path style=" stroke:none;fill-rule:nonzero;fill:#f89e19;fill-opacity:1;" d="M 272.386719 246.792969 C 272.386719 248.140625 271.292969 249.234375 269.941406 249.234375 C 268.59375 249.234375 267.5 248.140625 267.5 246.792969 C 267.5 245.449219 268.59375 244.355469 269.941406 244.355469 C 271.292969 244.355469 272.386719 245.449219 272.386719 246.792969 "/><path style=" stroke:none;fill-rule:nonzero;fill:#f89e19;fill-opacity:1;" d="M 278.394531 237.089844 C 278.394531 238.4375 277.300781 239.53125 275.949219 239.53125 C 274.601562 239.53125 273.507812 238.4375 273.507812 237.089844 C 273.507812 235.742188 274.601562 234.652344 275.949219 234.652344 C 277.300781 234.652344 278.394531 235.742188 278.394531 237.089844 "/><path style=" stroke:none;fill-rule:nonzero;fill:#f89e19;fill-opacity:1;" d="M 277.097656 225.816406 C 277.097656 227.164062 276.003906 228.253906 274.652344 228.253906 C 273.300781 228.253906 272.207031 227.164062 272.207031 225.816406 C 272.207031 224.46875 273.300781 223.375 274.652344 223.375 C 276.003906 223.375 277.097656 224.46875 277.097656 225.816406 "/><path style=" stroke:none;fill-rule:nonzero;fill:#f89e19;fill-opacity:1;" d="M 266.433594 220.261719 C 266.433594 221.609375 265.339844 222.699219 263.988281 222.699219 C 262.636719 222.699219 261.542969 221.609375 261.542969 220.261719 C 261.542969 218.910156 262.636719 217.820312 263.988281 217.820312 C 265.339844 217.820312 266.433594 218.910156 266.433594 220.261719 "/><g clip-rule="nonzero" clip-path="url(#3333bd9037)"><path style=" stroke:none;fill-rule:nonzero;fill:#2c2a2a;fill-opacity:1;" d="M 184.285156 233.953125 C 184.285156 258.691406 164.1875 278.75 139.398438 278.75 C 114.605469 278.75 94.511719 258.691406 94.511719 233.953125 C 94.511719 209.210938 114.605469 189.15625 139.398438 189.15625 C 164.1875 189.15625 184.285156 209.210938 184.285156 233.953125 "/></g><path style=" stroke:none;fill-rule:nonzero;fill:#3a3a3b;fill-opacity:1;" d="M 180.253906 233.347656 C 180.253906 256.078125 161.789062 274.507812 139.011719 274.507812 C 116.234375 274.507812 97.769531 256.078125 97.769531 233.347656 C 97.769531 210.617188 116.234375 192.1875 139.011719 192.1875 C 161.789062 192.1875 180.253906 210.617188 180.253906 233.347656 "/><path style=" stroke:none;fill-rule:nonzero;fill:#2c2a2a;fill-opacity:1;" d="M 162.144531 234.652344 C 162.144531 247.683594 151.789062 258.25 139.011719 258.25 C 126.238281 258.25 115.882812 247.683594 115.882812 234.652344 C 115.882812 221.617188 126.238281 211.050781 139.011719 211.050781 C 151.789062 211.050781 162.144531 221.617188 162.144531 234.652344 "/><path style=" stroke:none;fill-rule:nonzero;fill:#e5751a;fill-opacity:1;" d="M 158.695312 234.394531 C 158.695312 245.457031 149.953125 254.425781 139.171875 254.425781 C 128.390625 254.425781 119.652344 245.457031 119.652344 234.394531 C 119.652344 223.332031 128.390625 214.359375 139.171875 214.359375 C 149.953125 214.359375 158.695312 223.332031 158.695312 234.394531 "/><path style=" stroke:none;fill-rule:nonzero;fill:#f89e19;fill-opacity:1;" d="M 148.492188 234.394531 C 148.492188 239.734375 144.320312 244.058594 139.171875 244.058594 C 134.027344 244.058594 129.855469 239.734375 129.855469 234.394531 C 129.855469 229.054688 134.027344 224.726562 139.171875 224.726562 C 144.320312 224.726562 148.492188 229.054688 148.492188 234.394531 "/><path style=" stroke:none;fill-rule:nonzero;fill:#e5751a;fill-opacity:1;" d="M 143.445312 234.394531 C 143.445312 236.523438 141.714844 238.253906 139.578125 238.253906 C 137.441406 238.253906 135.710938 236.523438 135.710938 234.394531 C 135.710938 232.261719 137.441406 230.535156 139.578125 230.535156 C 141.714844 230.535156 143.445312 232.261719 143.445312 234.394531 "/><path style=" stroke:none;fill-rule:nonzero;fill:#f89e19;fill-opacity:1;" d="M 132.460938 222.699219 C 132.460938 224.046875 131.367188 225.140625 130.015625 225.140625 C 128.664062 225.140625 127.570312 224.046875 127.570312 222.699219 C 127.570312 221.351562 128.664062 220.261719 130.015625 220.261719 C 131.367188 220.261719 132.460938 221.351562 132.460938 222.699219 "/><path style=" stroke:none;fill-rule:nonzero;fill:#f89e19;fill-opacity:1;" d="M 127.253906 231.414062 C 127.253906 232.757812 126.160156 233.851562 124.808594 233.851562 C 123.457031 233.851562 122.363281 232.757812 122.363281 231.414062 C 122.363281 230.0625 123.457031 228.972656 124.808594 228.972656 C 126.160156 228.972656 127.253906 230.0625 127.253906 231.414062 "/><path style=" stroke:none;fill-rule:nonzero;fill:#f89e19;fill-opacity:1;" d="M 128.980469 242.550781 C 128.980469 243.894531 127.886719 244.988281 126.535156 244.988281 C 125.183594 244.988281 124.089844 243.894531 124.089844 242.550781 C 124.089844 241.199219 125.183594 240.109375 126.535156 240.109375 C 127.886719 240.109375 128.980469 241.199219 128.980469 242.550781 "/><path style=" stroke:none;fill-rule:nonzero;fill:#f89e19;fill-opacity:1;" d="M 138.484375 248.945312 C 138.484375 250.292969 137.386719 251.386719 136.039062 251.386719 C 134.6875 251.386719 133.59375 250.292969 133.59375 248.945312 C 133.59375 247.597656 134.6875 246.503906 136.039062 246.503906 C 137.386719 246.503906 138.484375 247.597656 138.484375 248.945312 "/><path style=" stroke:none;fill-rule:nonzero;fill:#f89e19;fill-opacity:1;" d="M 149.019531 246.792969 C 149.019531 248.140625 147.925781 249.234375 146.578125 249.234375 C 145.226562 249.234375 144.132812 248.140625 144.132812 246.792969 C 144.132812 245.449219 145.226562 244.355469 146.578125 244.355469 C 147.925781 244.355469 149.019531 245.449219 149.019531 246.792969 "/><path style=" stroke:none;fill-rule:nonzero;fill:#f89e19;fill-opacity:1;" d="M 155.03125 237.089844 C 155.03125 238.4375 153.933594 239.53125 152.585938 239.53125 C 151.234375 239.53125 150.140625 238.4375 150.140625 237.089844 C 150.140625 235.742188 151.234375 234.652344 152.585938 234.652344 C 153.933594 234.652344 155.03125 235.742188 155.03125 237.089844 "/><path style=" stroke:none;fill-rule:nonzero;fill:#f89e19;fill-opacity:1;" d="M 153.730469 225.816406 C 153.730469 227.164062 152.636719 228.253906 151.285156 228.253906 C 149.9375 228.253906 148.84375 227.164062 148.84375 225.816406 C 148.84375 224.46875 149.9375 223.375 151.285156 223.375 C 152.636719 223.375 153.730469 224.46875 153.730469 225.816406 "/><path style=" stroke:none;fill-rule:nonzero;fill:#f89e19;fill-opacity:1;" d="M 143.066406 220.261719 C 143.066406 221.609375 141.972656 222.699219 140.625 222.699219 C 139.273438 222.699219 138.179688 221.609375 138.179688 220.261719 C 138.179688 218.910156 139.273438 217.820312 140.625 217.820312 C 141.972656 217.820312 143.066406 218.910156 143.066406 220.261719 "/><path style=" stroke:none;fill-rule:nonzero;fill:#e5751a;fill-opacity:1;" d="M 186.539062 215.859375 C 186.539062 215.859375 187.3125 245.007812 187.644531 244.988281 C 187.976562 244.96875 214.070312 244.988281 214.070312 244.988281 L 213.28125 215.859375 L 186.539062 215.859375 "/><path style=" stroke:none;fill-rule:nonzero;fill:#f89e19;fill-opacity:1;" d="M 188.140625 219.570312 L 212.210938 219.570312 L 211.769531 241.550781 L 188.933594 241.550781 L 188.140625 219.570312 "/><path style=" stroke:none;fill-rule:nonzero;fill:#7fadad;fill-opacity:1;" d="M 269.15625 139.8125 L 270.039062 153.9375 C 270.039062 153.9375 288.304688 154.316406 288.304688 153.9375 C 288.304688 153.558594 281.972656 139.8125 281.972656 139.8125 L 269.15625 139.8125 "/><path style=" stroke:none;fill-rule:nonzero;fill:#b5e6e7;fill-opacity:1;" d="M 271.621094 141.3125 L 281.621094 141.3125 L 286.539062 152.835938 L 272.0625 152.835938 L 271.621094 141.3125 "/><g clip-rule="nonzero" clip-path="url(#1c7ba172c0)"><path style=" stroke:none;fill-rule:nonzero;fill:#ffffff;fill-opacity:1;" d="M 82.246094 328.3125 C 82.246094 329.457031 82.191406 330.59375 82.082031 331.730469 C 81.96875 332.867188 81.800781 333.996094 81.578125 335.113281 C 81.355469 336.234375 81.078125 337.339844 80.746094 338.433594 C 80.414062 339.527344 80.03125 340.601562 79.59375 341.65625 C 79.15625 342.710938 78.667969 343.742188 78.132812 344.746094 C 77.59375 345.753906 77.007812 346.734375 76.371094 347.683594 C 75.738281 348.632812 75.058594 349.546875 74.335938 350.429688 C 73.609375 351.3125 72.84375 352.160156 72.035156 352.964844 C 71.230469 353.773438 70.382812 354.539062 69.5 355.261719 C 68.617188 355.988281 67.703125 356.667969 66.753906 357.300781 C 65.804688 357.9375 64.824219 358.523438 63.820312 359.058594 C 62.8125 359.597656 61.78125 360.085938 60.726562 360.523438 C 59.671875 360.960938 58.597656 361.34375 57.503906 361.675781 C 56.414062 362.007812 55.304688 362.285156 54.1875 362.507812 C 53.066406 362.730469 51.9375 362.898438 50.800781 363.007812 C 49.664062 363.121094 48.527344 363.175781 47.382812 363.175781 C 46.242188 363.175781 45.105469 363.121094 43.96875 363.007812 C 42.832031 362.898438 41.703125 362.730469 40.582031 362.507812 C 39.464844 362.285156 38.355469 362.007812 37.265625 361.675781 C 36.171875 361.34375 35.097656 360.960938 34.042969 360.523438 C 32.988281 360.085938 31.957031 359.597656 30.949219 359.058594 C 29.941406 358.523438 28.964844 357.9375 28.015625 357.300781 C 27.066406 356.667969 26.148438 355.988281 25.269531 355.261719 C 24.386719 354.539062 23.539062 353.773438 22.734375 352.964844 C 21.925781 352.160156 21.160156 351.3125 20.433594 350.429688 C 19.710938 349.546875 19.03125 348.632812 18.398438 347.683594 C 17.761719 346.734375 17.175781 345.753906 16.636719 344.746094 C 16.101562 343.742188 15.613281 342.710938 15.175781 341.65625 C 14.738281 340.601562 14.355469 339.527344 14.023438 338.433594 C 13.691406 337.339844 13.414062 336.234375 13.191406 335.113281 C 12.96875 333.996094 12.800781 332.867188 12.6875 331.730469 C 12.578125 330.59375 12.519531 329.457031 12.519531 328.3125 C 12.519531 327.171875 12.578125 326.03125 12.6875 324.894531 C 12.800781 323.761719 12.96875 322.632812 13.191406 321.511719 C 13.414062 320.390625 13.691406 319.285156 14.023438 318.191406 C 14.355469 317.101562 14.738281 316.027344 15.175781 314.972656 C 15.613281 313.917969 16.101562 312.886719 16.636719 311.878906 C 17.175781 310.871094 17.761719 309.894531 18.398438 308.945312 C 19.03125 307.996094 19.710938 307.078125 20.433594 306.195312 C 21.160156 305.3125 21.925781 304.46875 22.734375 303.660156 C 23.539062 302.855469 24.386719 302.089844 25.269531 301.363281 C 26.148438 300.640625 27.066406 299.960938 28.015625 299.324219 C 28.964844 298.691406 29.941406 298.105469 30.949219 297.566406 C 31.957031 297.027344 32.988281 296.542969 34.042969 296.105469 C 35.097656 295.667969 36.171875 295.28125 37.265625 294.953125 C 38.355469 294.621094 39.464844 294.34375 40.582031 294.121094 C 41.703125 293.898438 42.832031 293.730469 43.96875 293.617188 C 45.105469 293.507812 46.242188 293.449219 47.382812 293.449219 C 48.527344 293.449219 49.664062 293.507812 50.800781 293.617188 C 51.9375 293.730469 53.066406 293.898438 54.1875 294.121094 C 55.304688 294.34375 56.414062 294.621094 57.503906 294.953125 C 58.597656 295.28125 59.671875 295.667969 60.726562 296.105469 C 61.78125 296.542969 62.8125 297.027344 63.820312 297.566406 C 64.824219 298.105469 65.804688 298.691406 66.753906 299.324219 C 67.703125 299.960938 68.617188 300.640625 69.5 301.363281 C 70.382812 302.089844 71.230469 302.855469 72.035156 303.660156 C 72.84375 304.46875 73.609375 305.3125 74.335938 306.195312 C 75.058594 307.078125 75.738281 307.996094 76.371094 308.945312 C 77.007812 309.894531 77.59375 310.871094 78.132812 311.878906 C 78.667969 312.886719 79.15625 313.917969 79.59375 314.972656 C 80.03125 316.027344 80.414062 317.101562 80.746094 318.191406 C 81.078125 319.285156 81.355469 320.390625 81.578125 321.511719 C 81.800781 322.632812 81.96875 323.761719 82.082031 324.894531 C 82.191406 326.03125 82.246094 327.171875 82.246094 328.3125 Z M 82.246094 328.3125 "/></g></g></svg>